%TF.GenerationSoftware,Altium Limited,Altium Designer,22.7.1 (60)*%
G04 Layer_Color=255*
%FSLAX43Y43*%
%MOMM*%
%TF.SameCoordinates,9F5AA4AF-AB1A-42FA-95B2-595A31CD3D24*%
%TF.FilePolarity,Positive*%
%TF.FileFunction,Pads,Top*%
%TF.Part,Single*%
G01*
G75*
%TA.AperFunction,SMDPad,CuDef*%
%ADD10O,2.300X0.450*%
%ADD11R,1.150X0.600*%
%ADD12R,1.150X0.300*%
%ADD13R,7.468X6.477*%
%ADD14R,1.200X1.500*%
%ADD15R,1.000X1.000*%
%ADD16R,1.500X1.200*%
%ADD17R,1.500X1.500*%
%ADD18O,0.600X1.900*%
%ADD19O,1.900X0.600*%
%ADD20R,2.000X5.500*%
%ADD21R,0.500X1.010*%
%ADD22R,2.780X4.780*%
%ADD23R,1.500X1.500*%
%ADD24R,1.574X0.572*%
G04:AMPARAMS|DCode=25|XSize=1.574mm|YSize=0.572mm|CornerRadius=0.286mm|HoleSize=0mm|Usage=FLASHONLY|Rotation=180.000|XOffset=0mm|YOffset=0mm|HoleType=Round|Shape=RoundedRectangle|*
%AMROUNDEDRECTD25*
21,1,1.574,0.000,0,0,180.0*
21,1,1.002,0.572,0,0,180.0*
1,1,0.572,-0.501,0.000*
1,1,0.572,0.501,0.000*
1,1,0.572,0.501,0.000*
1,1,0.572,-0.501,0.000*
%
%ADD25ROUNDEDRECTD25*%
%ADD26R,1.550X1.300*%
%ADD27R,1.680X1.700*%
%ADD28R,0.750X0.600*%
%ADD29R,3.800X2.030*%
G04:AMPARAMS|DCode=30|XSize=1.574mm|YSize=0.572mm|CornerRadius=0.286mm|HoleSize=0mm|Usage=FLASHONLY|Rotation=90.000|XOffset=0mm|YOffset=0mm|HoleType=Round|Shape=RoundedRectangle|*
%AMROUNDEDRECTD30*
21,1,1.574,0.000,0,0,90.0*
21,1,1.002,0.572,0,0,90.0*
1,1,0.572,0.000,0.501*
1,1,0.572,0.000,-0.501*
1,1,0.572,0.000,-0.501*
1,1,0.572,0.000,0.501*
%
%ADD30ROUNDEDRECTD30*%
%ADD31R,0.572X1.574*%
%ADD32R,2.800X2.800*%
G04:AMPARAMS|DCode=33|XSize=0.239mm|YSize=0.829mm|CornerRadius=0.12mm|HoleSize=0mm|Usage=FLASHONLY|Rotation=270.000|XOffset=0mm|YOffset=0mm|HoleType=Round|Shape=RoundedRectangle|*
%AMROUNDEDRECTD33*
21,1,0.239,0.590,0,0,270.0*
21,1,0.000,0.829,0,0,270.0*
1,1,0.239,-0.295,0.000*
1,1,0.239,-0.295,0.000*
1,1,0.239,0.295,0.000*
1,1,0.239,0.295,0.000*
%
%ADD33ROUNDEDRECTD33*%
G04:AMPARAMS|DCode=34|XSize=0.829mm|YSize=0.239mm|CornerRadius=0.12mm|HoleSize=0mm|Usage=FLASHONLY|Rotation=270.000|XOffset=0mm|YOffset=0mm|HoleType=Round|Shape=RoundedRectangle|*
%AMROUNDEDRECTD34*
21,1,0.829,0.000,0,0,270.0*
21,1,0.590,0.239,0,0,270.0*
1,1,0.239,0.000,-0.295*
1,1,0.239,0.000,0.295*
1,1,0.239,0.000,0.295*
1,1,0.239,0.000,-0.295*
%
%ADD34ROUNDEDRECTD34*%
%ADD35R,0.239X0.829*%
%ADD36O,0.450X1.400*%
%ADD37R,3.100X3.100*%
%ADD38R,0.900X0.800*%
%ADD39R,2.030X3.800*%
%ADD40R,0.800X0.900*%
%TA.AperFunction,ComponentPad*%
%ADD43O,2.000X1.000*%
%ADD44O,2.100X1.050*%
%ADD45C,0.650*%
%ADD46C,1.650*%
%ADD47R,1.650X1.650*%
%ADD48O,3.316X6.632*%
%ADD49C,3.450*%
%ADD50C,2.388*%
%ADD51C,1.600*%
G04:AMPARAMS|DCode=52|XSize=1.6mm|YSize=1.6mm|CornerRadius=0.32mm|HoleSize=0mm|Usage=FLASHONLY|Rotation=180.000|XOffset=0mm|YOffset=0mm|HoleType=Round|Shape=RoundedRectangle|*
%AMROUNDEDRECTD52*
21,1,1.600,0.960,0,0,180.0*
21,1,0.960,1.600,0,0,180.0*
1,1,0.640,-0.480,0.480*
1,1,0.640,0.480,0.480*
1,1,0.640,0.480,-0.480*
1,1,0.640,-0.480,-0.480*
%
%ADD52ROUNDEDRECTD52*%
%ADD53R,1.425X1.425*%
%ADD54C,1.425*%
%ADD55C,1.950*%
%ADD56R,1.950X1.950*%
%TA.AperFunction,ViaPad*%
%ADD57C,3.200*%
%TA.AperFunction,ComponentPad*%
%ADD58C,1.222*%
%ADD59R,1.222X1.222*%
%ADD60C,2.400*%
%ADD61R,2.400X2.400*%
D10*
X19476Y28357D02*
D03*
Y29007D02*
D03*
Y29657D02*
D03*
Y30307D02*
D03*
Y30957D02*
D03*
Y31607D02*
D03*
Y32257D02*
D03*
Y32907D02*
D03*
Y33557D02*
D03*
Y34207D02*
D03*
Y34857D02*
D03*
Y35507D02*
D03*
Y36157D02*
D03*
Y36807D02*
D03*
X12476Y28357D02*
D03*
Y29007D02*
D03*
Y29657D02*
D03*
Y30307D02*
D03*
Y30957D02*
D03*
Y31607D02*
D03*
Y32257D02*
D03*
Y32907D02*
D03*
Y33557D02*
D03*
Y34207D02*
D03*
Y34857D02*
D03*
Y35507D02*
D03*
Y36157D02*
D03*
Y36807D02*
D03*
D11*
X7775Y56410D02*
D03*
Y50010D02*
D03*
Y55610D02*
D03*
Y50810D02*
D03*
D12*
Y52960D02*
D03*
Y53460D02*
D03*
Y52460D02*
D03*
Y51960D02*
D03*
Y51460D02*
D03*
Y53960D02*
D03*
Y54460D02*
D03*
Y54960D02*
D03*
D13*
X11588Y71781D02*
D03*
X90963D02*
D03*
D14*
X104208Y49311D02*
D03*
X106308D02*
D03*
X87672Y59950D02*
D03*
X85572D02*
D03*
X54154Y18694D02*
D03*
X56254D02*
D03*
X42821Y20834D02*
D03*
X40721D02*
D03*
X42934Y26485D02*
D03*
X40834D02*
D03*
X42821Y23449D02*
D03*
X40721D02*
D03*
X42934Y31692D02*
D03*
X40834D02*
D03*
X42934Y34500D02*
D03*
X40834D02*
D03*
X42934Y28771D02*
D03*
X40834D02*
D03*
X56210Y36582D02*
D03*
X54110D02*
D03*
X89148Y41400D02*
D03*
X91248D02*
D03*
X89148Y43432D02*
D03*
X91248D02*
D03*
X89148Y39388D02*
D03*
X91248D02*
D03*
X121802Y45743D02*
D03*
X119702D02*
D03*
X116468D02*
D03*
X114368D02*
D03*
X109836Y62998D02*
D03*
X111936D02*
D03*
X88821Y30201D02*
D03*
X86721D02*
D03*
X22800Y50284D02*
D03*
X24900D02*
D03*
X33466Y48520D02*
D03*
X35566D02*
D03*
X35766Y38880D02*
D03*
X33666D02*
D03*
X35766Y41130D02*
D03*
X33666D02*
D03*
X35766Y43440D02*
D03*
X33666D02*
D03*
X24900Y53664D02*
D03*
X22800D02*
D03*
Y56704D02*
D03*
X24900D02*
D03*
D15*
X115570Y63666D02*
D03*
X122770D02*
D03*
X122620Y70716D02*
D03*
X115570Y70866D02*
D03*
D16*
X46380Y29250D02*
D03*
Y27150D02*
D03*
X46580Y16579D02*
D03*
Y14479D02*
D03*
X79482Y30712D02*
D03*
Y28612D02*
D03*
X79539Y23139D02*
D03*
Y21039D02*
D03*
X65252Y27150D02*
D03*
Y29250D02*
D03*
X5626Y46044D02*
D03*
Y43944D02*
D03*
X3257D02*
D03*
Y46044D02*
D03*
X9222Y43939D02*
D03*
Y46039D02*
D03*
X46380Y22214D02*
D03*
Y24314D02*
D03*
X85572Y46300D02*
D03*
Y48400D02*
D03*
X110084Y52579D02*
D03*
Y54679D02*
D03*
X110886Y75755D02*
D03*
Y73655D02*
D03*
X106654Y62998D02*
D03*
Y65098D02*
D03*
X49362Y52751D02*
D03*
Y54851D02*
D03*
X52298Y52751D02*
D03*
Y54851D02*
D03*
X60000Y10750D02*
D03*
Y12850D02*
D03*
X110163Y21138D02*
D03*
Y23238D02*
D03*
Y28606D02*
D03*
Y26506D02*
D03*
Y17684D02*
D03*
Y15584D02*
D03*
X65000Y12850D02*
D03*
Y10750D02*
D03*
X62500Y12850D02*
D03*
Y10750D02*
D03*
X62966Y50465D02*
D03*
Y48365D02*
D03*
X76682Y50682D02*
D03*
Y52782D02*
D03*
X62966Y54817D02*
D03*
Y52717D02*
D03*
X55346Y54817D02*
D03*
Y52717D02*
D03*
X41630Y56140D02*
D03*
Y54040D02*
D03*
X33756Y58748D02*
D03*
Y56648D02*
D03*
X22284Y43458D02*
D03*
Y41358D02*
D03*
X85572Y52972D02*
D03*
Y50872D02*
D03*
X9222Y36582D02*
D03*
Y34482D02*
D03*
X13182Y43440D02*
D03*
Y41340D02*
D03*
X16132Y43474D02*
D03*
Y41374D02*
D03*
X19024Y41358D02*
D03*
Y43458D02*
D03*
X19358Y11690D02*
D03*
Y13790D02*
D03*
X24358Y11690D02*
D03*
Y13790D02*
D03*
X29358Y11690D02*
D03*
Y13790D02*
D03*
D17*
X46580Y7725D02*
D03*
Y11225D02*
D03*
D18*
X51600Y33392D02*
D03*
X52400D02*
D03*
X53200D02*
D03*
X54000D02*
D03*
X54800D02*
D03*
X55600D02*
D03*
X56400D02*
D03*
X57200D02*
D03*
X58000D02*
D03*
X58800D02*
D03*
X59600D02*
D03*
Y21992D02*
D03*
X58800D02*
D03*
X58000D02*
D03*
X57200D02*
D03*
X56400D02*
D03*
X55600D02*
D03*
X54800D02*
D03*
X54000D02*
D03*
X53200D02*
D03*
X52400D02*
D03*
X51600D02*
D03*
D19*
X61300Y31692D02*
D03*
Y30892D02*
D03*
Y30092D02*
D03*
Y29292D02*
D03*
Y28492D02*
D03*
Y27692D02*
D03*
Y26892D02*
D03*
Y26092D02*
D03*
Y25292D02*
D03*
Y24492D02*
D03*
Y23692D02*
D03*
X49900D02*
D03*
Y24492D02*
D03*
Y25292D02*
D03*
Y26092D02*
D03*
Y26892D02*
D03*
Y27692D02*
D03*
Y28492D02*
D03*
Y29292D02*
D03*
Y30092D02*
D03*
Y30892D02*
D03*
Y31692D02*
D03*
D20*
X75100Y20950D02*
D03*
Y30450D02*
D03*
D21*
X39860Y39110D02*
D03*
Y40370D02*
D03*
Y41630D02*
D03*
Y42890D02*
D03*
X44140D02*
D03*
Y41630D02*
D03*
Y40370D02*
D03*
Y39110D02*
D03*
X80860Y42890D02*
D03*
Y41630D02*
D03*
Y40370D02*
D03*
Y39110D02*
D03*
X85140D02*
D03*
Y40370D02*
D03*
Y41630D02*
D03*
Y42890D02*
D03*
D22*
X42000Y41000D02*
D03*
X83000D02*
D03*
D23*
X14623Y56828D02*
D03*
X18123D02*
D03*
X14623Y50284D02*
D03*
X18123D02*
D03*
X14623Y53593D02*
D03*
X18123D02*
D03*
X92061Y30201D02*
D03*
X95561D02*
D03*
D24*
X34010Y31756D02*
D03*
Y26485D02*
D03*
X34030Y20900D02*
D03*
X106599Y26572D02*
D03*
D25*
X34010Y33656D02*
D03*
X32240Y32706D02*
D03*
X34010Y28385D02*
D03*
X32240Y27434D02*
D03*
X34030Y22800D02*
D03*
X32260Y21850D02*
D03*
X106599Y28472D02*
D03*
X104829Y27522D02*
D03*
D26*
X113729Y54609D02*
D03*
Y50109D02*
D03*
X121679Y54609D02*
D03*
Y50109D02*
D03*
D27*
X110084Y49323D02*
D03*
Y45743D02*
D03*
D28*
X108686Y80164D02*
D03*
X110886Y81114D02*
D03*
Y79214D02*
D03*
D29*
X100622Y70618D02*
D03*
Y67062D02*
D03*
X92061Y17684D02*
D03*
X64700Y44200D02*
D03*
Y41400D02*
D03*
Y38600D02*
D03*
X5118Y31607D02*
D03*
Y29007D02*
D03*
X15214Y46996D02*
D03*
X8200Y17200D02*
D03*
D30*
X110986Y70356D02*
D03*
X111936Y68586D02*
D03*
D31*
X110036D02*
D03*
D32*
X37566Y53013D02*
D03*
D33*
X39566Y54013D02*
D03*
Y53513D02*
D03*
Y53013D02*
D03*
Y52513D02*
D03*
Y52013D02*
D03*
X35566D02*
D03*
Y52513D02*
D03*
Y53013D02*
D03*
Y53513D02*
D03*
Y54013D02*
D03*
D34*
X38566Y51013D02*
D03*
X38066D02*
D03*
X37566D02*
D03*
X37066D02*
D03*
X36566D02*
D03*
Y55013D02*
D03*
X38066D02*
D03*
X37566D02*
D03*
X37066D02*
D03*
D35*
X38566D02*
D03*
D36*
X83526Y48782D02*
D03*
X82876D02*
D03*
X82226D02*
D03*
X81576D02*
D03*
X80926D02*
D03*
X80276D02*
D03*
X78976D02*
D03*
X79626D02*
D03*
X83526Y54682D02*
D03*
X82876D02*
D03*
X82226D02*
D03*
X81576D02*
D03*
X80276D02*
D03*
X80926D02*
D03*
X78976D02*
D03*
X79626D02*
D03*
D37*
X81251Y51732D02*
D03*
D38*
X56124Y48179D02*
D03*
X58124Y49129D02*
D03*
Y47229D02*
D03*
D39*
X71602Y50682D02*
D03*
X59410Y54529D02*
D03*
D40*
X52298Y47179D02*
D03*
X51348Y49179D02*
D03*
X53248D02*
D03*
D43*
X3020Y57530D02*
D03*
Y48890D02*
D03*
D44*
X7200Y57530D02*
D03*
Y48890D02*
D03*
D45*
X6700Y50320D02*
D03*
Y56100D02*
D03*
D46*
X59930Y3491D02*
D03*
X64930D02*
D03*
X62430D02*
D03*
X64930Y5991D02*
D03*
D47*
X59930D02*
D03*
D48*
X55880Y6991D02*
D03*
X68980D02*
D03*
D49*
X23653Y63780D02*
D03*
X78898Y79782D02*
D03*
D50*
X87128Y63780D02*
D03*
D51*
X89160Y5500D02*
D03*
X94240D02*
D03*
X91700D02*
D03*
X86620D02*
D03*
X84080D02*
D03*
D52*
X96780D02*
D03*
D53*
X116767Y33364D02*
D03*
D54*
X119307D02*
D03*
X116767Y30824D02*
D03*
X119307D02*
D03*
X116767Y28284D02*
D03*
X119307D02*
D03*
X116767Y25744D02*
D03*
X119307D02*
D03*
X116767Y23204D02*
D03*
X119307D02*
D03*
X116767Y20664D02*
D03*
X119307D02*
D03*
X116767Y18124D02*
D03*
X119307D02*
D03*
X116767Y15584D02*
D03*
X119307D02*
D03*
D55*
X100622Y80334D02*
D03*
D56*
Y76834D02*
D03*
D57*
X121158Y4510D02*
D03*
X121179Y78740D02*
D03*
X3810D02*
D03*
Y4510D02*
D03*
D58*
X108639Y37936D02*
D03*
X106099Y35396D02*
D03*
D59*
X108639Y32856D02*
D03*
D60*
X34358Y5086D02*
D03*
X29358D02*
D03*
X24358D02*
D03*
D61*
X19358D02*
D03*
%TF.MD5,57039d7c1828dfdb2765f22c46387f18*%
M02*
