%TF.GenerationSoftware,Altium Limited,Altium Designer,22.7.1 (60)*%
G04 Layer_Color=255*
%FSLAX43Y43*%
%MOMM*%
%TF.SameCoordinates,9F5AA4AF-AB1A-42FA-95B2-595A31CD3D24*%
%TF.FilePolarity,Positive*%
%TF.FileFunction,Pads,Bot*%
%TF.Part,Single*%
G01*
G75*
%TA.AperFunction,SMDPad,CuDef*%
%ADD32R,2.800X2.800*%
%ADD37R,3.100X3.100*%
%TA.AperFunction,ComponentPad*%
%ADD43O,2.000X1.000*%
%ADD44O,2.100X1.050*%
%ADD45C,0.650*%
%ADD46C,1.650*%
%ADD47R,1.650X1.650*%
%ADD48O,3.316X6.632*%
%ADD49C,3.450*%
%ADD50C,2.388*%
%ADD51C,1.600*%
G04:AMPARAMS|DCode=52|XSize=1.6mm|YSize=1.6mm|CornerRadius=0.32mm|HoleSize=0mm|Usage=FLASHONLY|Rotation=180.000|XOffset=0mm|YOffset=0mm|HoleType=Round|Shape=RoundedRectangle|*
%AMROUNDEDRECTD52*
21,1,1.600,0.960,0,0,180.0*
21,1,0.960,1.600,0,0,180.0*
1,1,0.640,-0.480,0.480*
1,1,0.640,0.480,0.480*
1,1,0.640,0.480,-0.480*
1,1,0.640,-0.480,-0.480*
%
%ADD52ROUNDEDRECTD52*%
%ADD53R,1.425X1.425*%
%ADD54C,1.425*%
%ADD55C,1.950*%
%ADD56R,1.950X1.950*%
%TA.AperFunction,ViaPad*%
%ADD57C,3.200*%
%TA.AperFunction,ComponentPad*%
%ADD58C,1.222*%
%ADD59R,1.222X1.222*%
%ADD60C,2.400*%
%ADD61R,2.400X2.400*%
D32*
X37566Y53013D02*
D03*
D37*
X81251Y51732D02*
D03*
D43*
X3020Y57530D02*
D03*
Y48890D02*
D03*
D44*
X7200Y57530D02*
D03*
Y48890D02*
D03*
D45*
X6700Y50320D02*
D03*
Y56100D02*
D03*
D46*
X59930Y3491D02*
D03*
X64930D02*
D03*
X62430D02*
D03*
X64930Y5991D02*
D03*
D47*
X59930D02*
D03*
D48*
X55880Y6991D02*
D03*
X68980D02*
D03*
D49*
X23653Y63780D02*
D03*
X78898Y79782D02*
D03*
D50*
X87128Y63780D02*
D03*
D51*
X89160Y5500D02*
D03*
X94240D02*
D03*
X91700D02*
D03*
X86620D02*
D03*
X84080D02*
D03*
D52*
X96780D02*
D03*
D53*
X116767Y33364D02*
D03*
D54*
X119307D02*
D03*
X116767Y30824D02*
D03*
X119307D02*
D03*
X116767Y28284D02*
D03*
X119307D02*
D03*
X116767Y25744D02*
D03*
X119307D02*
D03*
X116767Y23204D02*
D03*
X119307D02*
D03*
X116767Y20664D02*
D03*
X119307D02*
D03*
X116767Y18124D02*
D03*
X119307D02*
D03*
X116767Y15584D02*
D03*
X119307D02*
D03*
D55*
X100622Y80334D02*
D03*
D56*
Y76834D02*
D03*
D57*
X121158Y4510D02*
D03*
X121179Y78740D02*
D03*
X3810D02*
D03*
Y4510D02*
D03*
D58*
X108639Y37936D02*
D03*
X106099Y35396D02*
D03*
D59*
X108639Y32856D02*
D03*
D60*
X34358Y5086D02*
D03*
X29358D02*
D03*
X24358D02*
D03*
D61*
X19358D02*
D03*
%TF.MD5,08ec1c10a5724611309f097ed8d51705*%
M02*
