%TF.GenerationSoftware,Altium Limited,Altium Designer,22.7.1 (60)*%
G04 Layer_Color=16711935*
%FSLAX43Y43*%
%MOMM*%
%TF.SameCoordinates,9F5AA4AF-AB1A-42FA-95B2-595A31CD3D24*%
%TF.FilePolarity,Negative*%
%TF.FileFunction,Soldermask,Bot*%
%TF.Part,Single*%
G01*
G75*
%TA.AperFunction,SMDPad,CuDef*%
%ADD32R,2.800X2.800*%
%ADD37R,3.100X3.100*%
%TA.AperFunction,ComponentPad*%
%ADD43O,2.000X1.000*%
%ADD44O,2.100X1.050*%
%ADD45C,0.650*%
%ADD46C,1.650*%
%ADD47R,1.650X1.650*%
%ADD48O,3.316X6.632*%
%ADD49C,3.450*%
%ADD50C,2.388*%
%ADD51C,1.600*%
G04:AMPARAMS|DCode=52|XSize=1.6mm|YSize=1.6mm|CornerRadius=0.32mm|HoleSize=0mm|Usage=FLASHONLY|Rotation=180.000|XOffset=0mm|YOffset=0mm|HoleType=Round|Shape=RoundedRectangle|*
%AMROUNDEDRECTD52*
21,1,1.600,0.960,0,0,180.0*
21,1,0.960,1.600,0,0,180.0*
1,1,0.640,-0.480,0.480*
1,1,0.640,0.480,0.480*
1,1,0.640,0.480,-0.480*
1,1,0.640,-0.480,-0.480*
%
%ADD52ROUNDEDRECTD52*%
%ADD53R,1.425X1.425*%
%ADD54C,1.425*%
%ADD55C,1.950*%
%ADD56R,1.950X1.950*%
%TA.AperFunction,ViaPad*%
%ADD57C,3.200*%
%TA.AperFunction,ComponentPad*%
%ADD58C,1.222*%
%ADD59R,1.222X1.222*%
%ADD60C,2.400*%
%ADD61R,2.400X2.400*%
%TA.AperFunction,ViaPad*%
%ADD62C,0.610*%
%ADD63C,0.650*%
%ADD64C,0.750*%
D32*
X37566Y53013D02*
D03*
D37*
X81251Y51732D02*
D03*
D43*
X3020Y57530D02*
D03*
Y48890D02*
D03*
D44*
X7200Y57530D02*
D03*
Y48890D02*
D03*
D45*
X6700Y50320D02*
D03*
Y56100D02*
D03*
D46*
X59930Y3491D02*
D03*
X64930D02*
D03*
X62430D02*
D03*
X64930Y5991D02*
D03*
D47*
X59930D02*
D03*
D48*
X55880Y6991D02*
D03*
X68980D02*
D03*
D49*
X23653Y63780D02*
D03*
X78898Y79782D02*
D03*
D50*
X87128Y63780D02*
D03*
D51*
X89160Y5500D02*
D03*
X94240D02*
D03*
X91700D02*
D03*
X86620D02*
D03*
X84080D02*
D03*
D52*
X96780D02*
D03*
D53*
X116767Y33364D02*
D03*
D54*
X119307D02*
D03*
X116767Y30824D02*
D03*
X119307D02*
D03*
X116767Y28284D02*
D03*
X119307D02*
D03*
X116767Y25744D02*
D03*
X119307D02*
D03*
X116767Y23204D02*
D03*
X119307D02*
D03*
X116767Y20664D02*
D03*
X119307D02*
D03*
X116767Y18124D02*
D03*
X119307D02*
D03*
X116767Y15584D02*
D03*
X119307D02*
D03*
D55*
X100622Y80334D02*
D03*
D56*
Y76834D02*
D03*
D57*
X121158Y4510D02*
D03*
X121179Y78740D02*
D03*
X3810D02*
D03*
Y4510D02*
D03*
D58*
X108639Y37936D02*
D03*
X106099Y35396D02*
D03*
D59*
X108639Y32856D02*
D03*
D60*
X34358Y5086D02*
D03*
X29358D02*
D03*
X24358D02*
D03*
D61*
X19358D02*
D03*
D62*
X64930Y50465D02*
D03*
X102200Y12200D02*
D03*
X31400Y11700D02*
D03*
X63800Y26300D02*
D03*
X59600Y25300D02*
D03*
X51600Y31800D02*
D03*
X52700Y36500D02*
D03*
X55585Y30985D02*
D03*
X55600Y30092D02*
D03*
X44664Y24016D02*
D03*
X67200Y27150D02*
D03*
X64742Y25676D02*
D03*
X65200Y18600D02*
D03*
X58200Y36800D02*
D03*
X54154Y17100D02*
D03*
X60500Y44200D02*
D03*
X56400Y35100D02*
D03*
X41630Y58763D02*
D03*
X100900Y30200D02*
D03*
X97100D02*
D03*
X67200Y29200D02*
D03*
X77500Y28546D02*
D03*
X107100Y17637D02*
D03*
X93900Y30200D02*
D03*
X92000Y26800D02*
D03*
X91600Y15900D02*
D03*
X91700Y12200D02*
D03*
X45478Y19590D02*
D03*
X26300Y38600D02*
D03*
X16104Y36751D02*
D03*
X58081Y35892D02*
D03*
X102200Y49300D02*
D03*
X63190Y30890D02*
D03*
X14623Y30957D02*
D03*
X42821Y18417D02*
D03*
X43900Y19000D02*
D03*
X52300Y28600D02*
D03*
X58500Y39500D02*
D03*
X59990Y51655D02*
D03*
X21500Y11690D02*
D03*
X57990Y34990D02*
D03*
X26790Y11690D02*
D03*
X45400Y30900D02*
D03*
X104208Y62992D02*
D03*
X29600Y35500D02*
D03*
X46638Y40370D02*
D03*
X48700Y39100D02*
D03*
X31200Y36500D02*
D03*
X52700Y41700D02*
D03*
X9626Y53854D02*
D03*
X9372Y28962D02*
D03*
X22284Y30307D02*
D03*
X13182Y44989D02*
D03*
X16104D02*
D03*
X11912Y52910D02*
D03*
X43662Y54040D02*
D03*
X78460Y59950D02*
D03*
D63*
X100000Y10000D02*
D03*
X110000Y70000D02*
D03*
X115000Y60000D02*
D03*
Y40000D02*
D03*
X110000Y30000D02*
D03*
Y10000D02*
D03*
X105000Y60000D02*
D03*
X100000Y50000D02*
D03*
X105000Y20000D02*
D03*
X95000Y60000D02*
D03*
X90000Y50000D02*
D03*
X95000Y20000D02*
D03*
X90000Y10000D02*
D03*
X80000Y70000D02*
D03*
X85000Y20000D02*
D03*
X80000Y10000D02*
D03*
X70000Y70000D02*
D03*
X75000Y60000D02*
D03*
X70000Y50000D02*
D03*
X65000Y60000D02*
D03*
X60000Y50000D02*
D03*
X50000Y70000D02*
D03*
X55000Y60000D02*
D03*
X50000Y50000D02*
D03*
X40000Y70000D02*
D03*
X45000Y60000D02*
D03*
X40000Y30000D02*
D03*
Y10000D02*
D03*
X30000Y70000D02*
D03*
X35000Y60000D02*
D03*
X30000Y50000D02*
D03*
X20000Y70000D02*
D03*
X25000Y60000D02*
D03*
Y40000D02*
D03*
X20000Y10000D02*
D03*
X15000Y60000D02*
D03*
Y40000D02*
D03*
Y20000D02*
D03*
X10000Y10000D02*
D03*
D64*
X37566Y53013D02*
D03*
X36677Y53902D02*
D03*
X38455Y52124D02*
D03*
Y53902D02*
D03*
X36677Y52124D02*
D03*
X82251Y50732D02*
D03*
X81251D02*
D03*
X82251Y51732D02*
D03*
X81251D02*
D03*
X82251Y52732D02*
D03*
X81251D02*
D03*
X80251Y50732D02*
D03*
Y51732D02*
D03*
Y52732D02*
D03*
%TF.MD5,5253d8c1911e9023c7a8eb900b68188b*%
M02*
