%TF.GenerationSoftware,Altium Limited,Altium Designer,22.7.1 (60)*%
G04 Layer_Color=16711935*
%FSLAX43Y43*%
%MOMM*%
%TF.SameCoordinates,9F5AA4AF-AB1A-42FA-95B2-595A31CD3D24*%
%TF.FilePolarity,Positive*%
%TF.FileFunction,Other,Top_Dims*%
%TF.Part,Single*%
G01*
G75*
%TA.AperFunction,NonConductor*%
%ADD70C,0.152*%
%ADD71C,0.254*%
D70*
X137998Y37639D02*
X137745Y37893D01*
Y38401D01*
X137998Y38654D01*
X138252D01*
X138506Y38401D01*
X138760Y38654D01*
X139014D01*
X139268Y38401D01*
Y37893D01*
X139014Y37639D01*
X138760D01*
X138506Y37893D01*
X138252Y37639D01*
X137998D01*
X138506Y37893D02*
Y38401D01*
X139268Y40178D02*
Y39162D01*
X138252Y40178D01*
X137998D01*
X137745Y39924D01*
Y39416D01*
X137998Y39162D01*
X139522Y40940D02*
X139268Y41194D01*
X139014D01*
Y40940D01*
X139268D01*
Y41194D01*
X139522Y40940D01*
X139776Y40686D01*
X137998Y42209D02*
X137745Y42463D01*
Y42971D01*
X137998Y43225D01*
X139014D01*
X139268Y42971D01*
Y42463D01*
X139014Y42209D01*
X137998D01*
Y43733D02*
X137745Y43987D01*
Y44495D01*
X137998Y44748D01*
X139014D01*
X139268Y44495D01*
Y43987D01*
X139014Y43733D01*
X137998D01*
X57904Y89632D02*
X58412D01*
X58158D01*
Y91155D01*
X57904Y90902D01*
X60189Y89632D02*
X59174D01*
X60189Y90648D01*
Y90902D01*
X59935Y91155D01*
X59427D01*
X59174Y90902D01*
X61713Y91155D02*
X60697D01*
Y90394D01*
X61205Y90648D01*
X61459D01*
X61713Y90394D01*
Y89886D01*
X61459Y89632D01*
X60951D01*
X60697Y89886D01*
X62474Y89378D02*
X62728Y89632D01*
Y89886D01*
X62474D01*
Y89632D01*
X62728D01*
X62474Y89378D01*
X62221Y89124D01*
X63744Y90902D02*
X63998Y91155D01*
X64506D01*
X64760Y90902D01*
Y89886D01*
X64506Y89632D01*
X63998D01*
X63744Y89886D01*
Y90902D01*
X65268D02*
X65521Y91155D01*
X66029D01*
X66283Y90902D01*
Y89886D01*
X66029Y89632D01*
X65521D01*
X65268Y89886D01*
Y90902D01*
D71*
X138100Y82600D02*
X138608Y81076D01*
X137592D02*
X138100Y82600D01*
X137592Y2124D02*
X138100Y600D01*
X138608Y2124D01*
X138100Y45155D02*
Y82600D01*
Y600D02*
Y37232D01*
X121560Y82600D02*
X138354D01*
X122200Y600D02*
X138354D01*
X0Y90800D02*
X1524Y91308D01*
X0Y90800D02*
X1524Y90292D01*
X123476D02*
X125000Y90800D01*
X123476Y91308D02*
X125000Y90800D01*
X0D02*
X57498D01*
X66690D02*
X125000D01*
X0Y79121D02*
Y91054D01*
X125000Y79121D02*
Y91054D01*
%TF.MD5,4467c77cd878feb2780d10ce24dd97be*%
M02*
