M48
;Layer_Color=9474304
;FILE_FORMAT=4:3
METRIC,LZ
;TYPE=PLATED
T1F00S00C0.250
T2F00S00C0.300
T3F00S00C0.350
T5F00S00C0.714
T6F00S00C0.950
T7F00S00C1.100
T8F00S00C1.300
T9F00S00C1.600
T11F00S00C3.200
;TYPE=NON_PLATED
T12F00S00C0.650
T13F00S00C2.388
T14F00S00C3.450
%
T01
X00215Y001169
X002679
X00314Y00117
X0042821Y0018417
X00439Y0019
X0045478Y001959
X0044664Y0024016
X00596Y00253
X00638Y00263
X0064742Y0025676
X00672Y002715
X00652Y00186
X0054154Y00171
X00916Y00159
X00917Y00122
X01022
X01071Y0017637
X0092Y00268
X00939Y00302
X00971
X01009
X01022Y00493
X0104208Y0062992
X007846Y005995
X00775Y0028546
X00672Y00292
X006319Y003089
X0055585Y0030985
X00556Y0030092
X00523Y00286
X00516Y00318
X00527Y00365
X00564Y00351
X005799Y003499
X0058081Y0035892
X00582Y00368
X00585Y00395
X00605Y00442
X005999Y0051655
X006493Y0050465
X00527Y00417
X00487Y00391
X0046638Y004037
X00454Y00309
X00312Y00365
X00296Y00355
X0043662Y005404
X004163Y0058763
X00263Y00386
X0016104Y0036751
X0014623Y0030957
X0009372Y0028962
X0022284Y0030307
X0016104Y0044989
X0013182
X0011912Y005291
X0009626Y0053854
T02
X001Y001
X002
X0015Y002
X004Y001
X008
X009
X01
X0105Y002
X0095
X0085
X011Y001
Y003
X0115Y004
Y006
X0105
X0095
X01Y005
X009
X007
X0075Y006
X0065
X0055
X0045
X0035
X003Y005
X005
X006
X004Y003
X0025Y004
X0015
Y006
X0025
X002Y007
X003
X004
X005
X007
X008
X011
T03
X0080251Y0050732
X0081251
X0082251
Y0051732
X0081251
Y0052732
X0082251
X0080251
Y0051732
X0038455Y0052124
X0037566Y0053013
X0036677Y0053902
X0038455
X0036677Y0052124
T05
X0108639Y0032856
Y0037936
X0106099Y0035396
T06
X0116767Y0015584
Y0018124
Y0020664
Y0023204
Y0025744
X0119307
Y0023204
Y0020664
Y0018124
Y0015584
Y0028284
Y0030824
Y0033364
X0116767
Y0030824
Y0028284
T07
X005993Y0003491
X006243
X006493
Y0005991
X005993
X008408Y00055
X008662
X008916
X00917
X009424
X009678
T08
X0100622Y0076834
Y0080334
T09
X0019358Y0005086
X0024358
X0029358
X0034358
T11
X000381Y000451
X0121158
X000381Y007874
X0121179
T12
X00067Y005032
Y00561
T13
X0087128Y006378
T14
X0023653Y006378
X0078898Y0079782
M30
