%TF.GenerationSoftware,Altium Limited,Altium Designer,22.7.1 (60)*%
G04 Layer_Physical_Order=2*
G04 Layer_Color=16711680*
%FSLAX43Y43*%
%MOMM*%
%TF.SameCoordinates,9F5AA4AF-AB1A-42FA-95B2-595A31CD3D24*%
%TF.FilePolarity,Positive*%
%TF.FileFunction,Copper,L2,Bot,Signal*%
%TF.Part,Single*%
G01*
G75*
%TA.AperFunction,SMDPad,CuDef*%
%ADD32R,2.800X2.800*%
%ADD37R,3.100X3.100*%
%TA.AperFunction,Conductor*%
%ADD41C,0.254*%
%ADD42C,0.300*%
%TA.AperFunction,ComponentPad*%
%ADD43O,2.000X1.000*%
%ADD44O,2.100X1.050*%
%ADD45C,0.650*%
%ADD46C,1.650*%
%ADD47R,1.650X1.650*%
%ADD48O,3.316X6.632*%
%ADD49C,3.450*%
%ADD50C,2.388*%
%ADD51C,1.600*%
G04:AMPARAMS|DCode=52|XSize=1.6mm|YSize=1.6mm|CornerRadius=0.32mm|HoleSize=0mm|Usage=FLASHONLY|Rotation=180.000|XOffset=0mm|YOffset=0mm|HoleType=Round|Shape=RoundedRectangle|*
%AMROUNDEDRECTD52*
21,1,1.600,0.960,0,0,180.0*
21,1,0.960,1.600,0,0,180.0*
1,1,0.640,-0.480,0.480*
1,1,0.640,0.480,0.480*
1,1,0.640,0.480,-0.480*
1,1,0.640,-0.480,-0.480*
%
%ADD52ROUNDEDRECTD52*%
%ADD53R,1.425X1.425*%
%ADD54C,1.425*%
%ADD55C,1.950*%
%ADD56R,1.950X1.950*%
%TA.AperFunction,ViaPad*%
%ADD57C,3.200*%
%TA.AperFunction,ComponentPad*%
%ADD58C,1.222*%
%ADD59R,1.222X1.222*%
%ADD60C,2.400*%
%ADD61R,2.400X2.400*%
%TA.AperFunction,ViaPad*%
%ADD62C,0.610*%
%ADD63C,0.650*%
%ADD64C,0.750*%
G36*
X119258Y82345D02*
X119293Y82218D01*
X118850Y81946D01*
X118377Y81542D01*
X117973Y81070D01*
X117648Y80539D01*
X117410Y79965D01*
X117265Y79360D01*
X117216Y78740D01*
X117265Y78120D01*
X117410Y77515D01*
X117648Y76941D01*
X117973Y76410D01*
X118377Y75938D01*
X118850Y75534D01*
X119380Y75209D01*
X119955Y74971D01*
X120559Y74826D01*
X121179Y74777D01*
X121799Y74826D01*
X122404Y74971D01*
X122979Y75209D01*
X123509Y75534D01*
X123982Y75938D01*
X124386Y76410D01*
X124621Y76794D01*
X124748Y76758D01*
X124843Y6264D01*
X124718Y6239D01*
X124689Y6309D01*
X124364Y6840D01*
X123960Y7312D01*
X123488Y7716D01*
X122957Y8041D01*
X122383Y8279D01*
X121778Y8424D01*
X121158Y8473D01*
X120538Y8424D01*
X119933Y8279D01*
X119359Y8041D01*
X118828Y7716D01*
X118356Y7312D01*
X117952Y6840D01*
X117627Y6309D01*
X117389Y5735D01*
X117244Y5130D01*
X117195Y4510D01*
X117244Y3890D01*
X117389Y3285D01*
X117627Y2711D01*
X117952Y2180D01*
X118356Y1708D01*
X118828Y1304D01*
X119359Y979D01*
X119334Y855D01*
X5634Y855D01*
X5609Y979D01*
X6140Y1304D01*
X6612Y1708D01*
X7016Y2180D01*
X7341Y2711D01*
X7579Y3285D01*
X7724Y3890D01*
X7773Y4510D01*
X7724Y5130D01*
X7579Y5735D01*
X7341Y6309D01*
X7016Y6840D01*
X6612Y7312D01*
X6140Y7716D01*
X5609Y8041D01*
X5035Y8279D01*
X4430Y8424D01*
X3810Y8473D01*
X3190Y8424D01*
X2585Y8279D01*
X2011Y8041D01*
X1480Y7716D01*
X1008Y7312D01*
X604Y6840D01*
X284Y6318D01*
X278Y6317D01*
X157Y6386D01*
X252Y76741D01*
X379Y76777D01*
X604Y76410D01*
X1008Y75938D01*
X1480Y75534D01*
X2011Y75209D01*
X2585Y74971D01*
X3190Y74826D01*
X3810Y74777D01*
X4430Y74826D01*
X5035Y74971D01*
X5609Y75209D01*
X6140Y75534D01*
X6612Y75938D01*
X7016Y76410D01*
X7341Y76941D01*
X7579Y77515D01*
X7724Y78120D01*
X7773Y78740D01*
X7724Y79360D01*
X7579Y79965D01*
X7341Y80539D01*
X7016Y81070D01*
X6612Y81542D01*
X6140Y81946D01*
X5696Y82218D01*
X5732Y82345D01*
X119258Y82345D01*
D02*
G37*
%LPC*%
G36*
X100770Y81460D02*
X100474D01*
X100187Y81383D01*
X99931Y81235D01*
X99721Y81025D01*
X99573Y80769D01*
X99496Y80482D01*
Y80186D01*
X99573Y79899D01*
X99721Y79643D01*
X99931Y79433D01*
X100187Y79285D01*
X100474Y79208D01*
X100770D01*
X101057Y79285D01*
X101313Y79433D01*
X101523Y79643D01*
X101671Y79899D01*
X101748Y80186D01*
Y80482D01*
X101671Y80769D01*
X101523Y81025D01*
X101313Y81235D01*
X101057Y81383D01*
X100770Y81460D01*
D02*
G37*
G36*
X79083Y81658D02*
X78713D01*
X78351Y81586D01*
X78009Y81444D01*
X77702Y81239D01*
X77441Y80978D01*
X77236Y80670D01*
X77094Y80329D01*
X77022Y79967D01*
Y79597D01*
X77094Y79235D01*
X77236Y78893D01*
X77441Y78586D01*
X77702Y78325D01*
X78009Y78119D01*
X78351Y77978D01*
X78713Y77906D01*
X79083D01*
X79445Y77978D01*
X79787Y78119D01*
X80094Y78325D01*
X80355Y78586D01*
X80561Y78893D01*
X80702Y79235D01*
X80774Y79597D01*
Y79967D01*
X80702Y80329D01*
X80561Y80670D01*
X80355Y80978D01*
X80094Y81239D01*
X79787Y81444D01*
X79445Y81586D01*
X79083Y81658D01*
D02*
G37*
G36*
X101748Y77960D02*
X99496D01*
Y77117D01*
X66456D01*
X66348Y77096D01*
X66256Y77034D01*
X43717Y54496D01*
X43571D01*
X43404Y54427D01*
X43275Y54298D01*
X43206Y54131D01*
Y53949D01*
X43275Y53782D01*
X43404Y53653D01*
X43571Y53584D01*
X43753D01*
X43920Y53653D01*
X44049Y53782D01*
X44118Y53949D01*
Y54095D01*
X66573Y76551D01*
X99496D01*
Y75708D01*
X101748D01*
Y77960D01*
D02*
G37*
G36*
X110104Y70525D02*
X110100D01*
Y70100D01*
X110525D01*
Y70104D01*
X110445Y70297D01*
X110297Y70445D01*
X110104Y70525D01*
D02*
G37*
G36*
X109900D02*
X109896D01*
X109703Y70445D01*
X109555Y70297D01*
X109475Y70104D01*
Y70100D01*
X109900D01*
Y70525D01*
D02*
G37*
G36*
X80104D02*
X80100D01*
Y70100D01*
X80525D01*
Y70104D01*
X80445Y70297D01*
X80297Y70445D01*
X80104Y70525D01*
D02*
G37*
G36*
X79900D02*
X79896D01*
X79703Y70445D01*
X79555Y70297D01*
X79475Y70104D01*
Y70100D01*
X79900D01*
Y70525D01*
D02*
G37*
G36*
X70104D02*
X70100D01*
Y70100D01*
X70525D01*
Y70104D01*
X70445Y70297D01*
X70297Y70445D01*
X70104Y70525D01*
D02*
G37*
G36*
X69900D02*
X69896D01*
X69703Y70445D01*
X69555Y70297D01*
X69475Y70104D01*
Y70100D01*
X69900D01*
Y70525D01*
D02*
G37*
G36*
X50104D02*
X50100D01*
Y70100D01*
X50525D01*
Y70104D01*
X50445Y70297D01*
X50297Y70445D01*
X50104Y70525D01*
D02*
G37*
G36*
X49900D02*
X49896D01*
X49703Y70445D01*
X49555Y70297D01*
X49475Y70104D01*
Y70100D01*
X49900D01*
Y70525D01*
D02*
G37*
G36*
X40104D02*
X40100D01*
Y70100D01*
X40525D01*
Y70104D01*
X40445Y70297D01*
X40297Y70445D01*
X40104Y70525D01*
D02*
G37*
G36*
X39900D02*
X39896D01*
X39703Y70445D01*
X39555Y70297D01*
X39475Y70104D01*
Y70100D01*
X39900D01*
Y70525D01*
D02*
G37*
G36*
X30104D02*
X30100D01*
Y70100D01*
X30525D01*
Y70104D01*
X30445Y70297D01*
X30297Y70445D01*
X30104Y70525D01*
D02*
G37*
G36*
X29900D02*
X29896D01*
X29703Y70445D01*
X29555Y70297D01*
X29475Y70104D01*
Y70100D01*
X29900D01*
Y70525D01*
D02*
G37*
G36*
X20104D02*
X20100D01*
Y70100D01*
X20525D01*
Y70104D01*
X20445Y70297D01*
X20297Y70445D01*
X20104Y70525D01*
D02*
G37*
G36*
X19900D02*
X19896D01*
X19703Y70445D01*
X19555Y70297D01*
X19475Y70104D01*
Y70100D01*
X19900D01*
Y70525D01*
D02*
G37*
G36*
X110525Y69900D02*
X110100D01*
Y69475D01*
X110104D01*
X110297Y69555D01*
X110445Y69703D01*
X110525Y69896D01*
Y69900D01*
D02*
G37*
G36*
X109900D02*
X109475D01*
Y69896D01*
X109555Y69703D01*
X109703Y69555D01*
X109896Y69475D01*
X109900D01*
Y69900D01*
D02*
G37*
G36*
X80525D02*
X80100D01*
Y69475D01*
X80104D01*
X80297Y69555D01*
X80445Y69703D01*
X80525Y69896D01*
Y69900D01*
D02*
G37*
G36*
X79900D02*
X79475D01*
Y69896D01*
X79555Y69703D01*
X79703Y69555D01*
X79896Y69475D01*
X79900D01*
Y69900D01*
D02*
G37*
G36*
X70525D02*
X70100D01*
Y69475D01*
X70104D01*
X70297Y69555D01*
X70445Y69703D01*
X70525Y69896D01*
Y69900D01*
D02*
G37*
G36*
X69900D02*
X69475D01*
Y69896D01*
X69555Y69703D01*
X69703Y69555D01*
X69896Y69475D01*
X69900D01*
Y69900D01*
D02*
G37*
G36*
X50525D02*
X50100D01*
Y69475D01*
X50104D01*
X50297Y69555D01*
X50445Y69703D01*
X50525Y69896D01*
Y69900D01*
D02*
G37*
G36*
X49900D02*
X49475D01*
Y69896D01*
X49555Y69703D01*
X49703Y69555D01*
X49896Y69475D01*
X49900D01*
Y69900D01*
D02*
G37*
G36*
X40525D02*
X40100D01*
Y69475D01*
X40104D01*
X40297Y69555D01*
X40445Y69703D01*
X40525Y69896D01*
Y69900D01*
D02*
G37*
G36*
X39900D02*
X39475D01*
Y69896D01*
X39555Y69703D01*
X39703Y69555D01*
X39896Y69475D01*
X39900D01*
Y69900D01*
D02*
G37*
G36*
X30525D02*
X30100D01*
Y69475D01*
X30104D01*
X30297Y69555D01*
X30445Y69703D01*
X30525Y69896D01*
Y69900D01*
D02*
G37*
G36*
X29900D02*
X29475D01*
Y69896D01*
X29555Y69703D01*
X29703Y69555D01*
X29896Y69475D01*
X29900D01*
Y69900D01*
D02*
G37*
G36*
X20525D02*
X20100D01*
Y69475D01*
X20104D01*
X20297Y69555D01*
X20445Y69703D01*
X20525Y69896D01*
Y69900D01*
D02*
G37*
G36*
X19900D02*
X19475D01*
Y69896D01*
X19555Y69703D01*
X19703Y69555D01*
X19896Y69475D01*
X19900D01*
Y69900D01*
D02*
G37*
G36*
X87305Y65125D02*
X86951D01*
X86609Y65033D01*
X86302Y64856D01*
X86052Y64605D01*
X85875Y64299D01*
X85783Y63957D01*
Y63603D01*
X85875Y63261D01*
X86052Y62954D01*
X86302Y62704D01*
X86609Y62527D01*
X86951Y62435D01*
X87305D01*
X87647Y62527D01*
X87953Y62704D01*
X88204Y62954D01*
X88381Y63261D01*
X88472Y63603D01*
Y63957D01*
X88381Y64299D01*
X88204Y64605D01*
X87953Y64856D01*
X87647Y65033D01*
X87305Y65125D01*
D02*
G37*
G36*
X23838Y65656D02*
X23468D01*
X23106Y65584D01*
X22764Y65442D01*
X22457Y65237D01*
X22196Y64976D01*
X21991Y64668D01*
X21849Y64327D01*
X21777Y63965D01*
Y63595D01*
X21849Y63233D01*
X21991Y62891D01*
X22196Y62584D01*
X22457Y62323D01*
X22764Y62117D01*
X23106Y61976D01*
X23468Y61904D01*
X23838D01*
X24200Y61976D01*
X24542Y62117D01*
X24849Y62323D01*
X25110Y62584D01*
X25316Y62891D01*
X25457Y63233D01*
X25529Y63595D01*
Y63965D01*
X25457Y64327D01*
X25316Y64668D01*
X25110Y64976D01*
X24849Y65237D01*
X24542Y65442D01*
X24200Y65584D01*
X23838Y65656D01*
D02*
G37*
G36*
X115104Y60525D02*
X115100D01*
Y60100D01*
X115525D01*
Y60104D01*
X115445Y60297D01*
X115297Y60445D01*
X115104Y60525D01*
D02*
G37*
G36*
X114900D02*
X114896D01*
X114703Y60445D01*
X114555Y60297D01*
X114475Y60104D01*
Y60100D01*
X114900D01*
Y60525D01*
D02*
G37*
G36*
X105104D02*
X105100D01*
Y60100D01*
X105525D01*
Y60104D01*
X105445Y60297D01*
X105297Y60445D01*
X105104Y60525D01*
D02*
G37*
G36*
X104900D02*
X104896D01*
X104703Y60445D01*
X104555Y60297D01*
X104475Y60104D01*
Y60100D01*
X104900D01*
Y60525D01*
D02*
G37*
G36*
X95104D02*
X95100D01*
Y60100D01*
X95525D01*
Y60104D01*
X95445Y60297D01*
X95297Y60445D01*
X95104Y60525D01*
D02*
G37*
G36*
X94900D02*
X94896D01*
X94703Y60445D01*
X94555Y60297D01*
X94475Y60104D01*
Y60100D01*
X94900D01*
Y60525D01*
D02*
G37*
G36*
X75104D02*
X75100D01*
Y60100D01*
X75525D01*
Y60104D01*
X75445Y60297D01*
X75297Y60445D01*
X75104Y60525D01*
D02*
G37*
G36*
X74900D02*
X74896D01*
X74703Y60445D01*
X74555Y60297D01*
X74475Y60104D01*
Y60100D01*
X74900D01*
Y60525D01*
D02*
G37*
G36*
X65104D02*
X65100D01*
Y60100D01*
X65525D01*
Y60104D01*
X65445Y60297D01*
X65297Y60445D01*
X65104Y60525D01*
D02*
G37*
G36*
X64900D02*
X64896D01*
X64703Y60445D01*
X64555Y60297D01*
X64475Y60104D01*
Y60100D01*
X64900D01*
Y60525D01*
D02*
G37*
G36*
X55104D02*
X55100D01*
Y60100D01*
X55525D01*
Y60104D01*
X55445Y60297D01*
X55297Y60445D01*
X55104Y60525D01*
D02*
G37*
G36*
X54900D02*
X54896D01*
X54703Y60445D01*
X54555Y60297D01*
X54475Y60104D01*
Y60100D01*
X54900D01*
Y60525D01*
D02*
G37*
G36*
X45104D02*
X45100D01*
Y60100D01*
X45525D01*
Y60104D01*
X45445Y60297D01*
X45297Y60445D01*
X45104Y60525D01*
D02*
G37*
G36*
X44900D02*
X44896D01*
X44703Y60445D01*
X44555Y60297D01*
X44475Y60104D01*
Y60100D01*
X44900D01*
Y60525D01*
D02*
G37*
G36*
X35104D02*
X35100D01*
Y60100D01*
X35525D01*
Y60104D01*
X35445Y60297D01*
X35297Y60445D01*
X35104Y60525D01*
D02*
G37*
G36*
X34900D02*
X34896D01*
X34703Y60445D01*
X34555Y60297D01*
X34475Y60104D01*
Y60100D01*
X34900D01*
Y60525D01*
D02*
G37*
G36*
X25104D02*
X25100D01*
Y60100D01*
X25525D01*
Y60104D01*
X25445Y60297D01*
X25297Y60445D01*
X25104Y60525D01*
D02*
G37*
G36*
X24900D02*
X24896D01*
X24703Y60445D01*
X24555Y60297D01*
X24475Y60104D01*
Y60100D01*
X24900D01*
Y60525D01*
D02*
G37*
G36*
X15104D02*
X15100D01*
Y60100D01*
X15525D01*
Y60104D01*
X15445Y60297D01*
X15297Y60445D01*
X15104Y60525D01*
D02*
G37*
G36*
X14900D02*
X14896D01*
X14703Y60445D01*
X14555Y60297D01*
X14475Y60104D01*
Y60100D01*
X14900D01*
Y60525D01*
D02*
G37*
G36*
X78560Y60455D02*
X78560D01*
Y60050D01*
X78965D01*
Y60050D01*
X78888Y60236D01*
X78746Y60378D01*
X78560Y60455D01*
D02*
G37*
G36*
X78360D02*
X78360D01*
X78174Y60378D01*
X78032Y60236D01*
X77955Y60050D01*
Y60050D01*
X78360D01*
Y60455D01*
D02*
G37*
G36*
X115525Y59900D02*
X115100D01*
Y59475D01*
X115104D01*
X115297Y59555D01*
X115445Y59703D01*
X115525Y59896D01*
Y59900D01*
D02*
G37*
G36*
X114900D02*
X114475D01*
Y59896D01*
X114555Y59703D01*
X114703Y59555D01*
X114896Y59475D01*
X114900D01*
Y59900D01*
D02*
G37*
G36*
X105525D02*
X105100D01*
Y59475D01*
X105104D01*
X105297Y59555D01*
X105445Y59703D01*
X105525Y59896D01*
Y59900D01*
D02*
G37*
G36*
X104900D02*
X104475D01*
Y59896D01*
X104555Y59703D01*
X104703Y59555D01*
X104896Y59475D01*
X104900D01*
Y59900D01*
D02*
G37*
G36*
X95525D02*
X95100D01*
Y59475D01*
X95104D01*
X95297Y59555D01*
X95445Y59703D01*
X95525Y59896D01*
Y59900D01*
D02*
G37*
G36*
X94900D02*
X94475D01*
Y59896D01*
X94555Y59703D01*
X94703Y59555D01*
X94896Y59475D01*
X94900D01*
Y59900D01*
D02*
G37*
G36*
X75525D02*
X75100D01*
Y59475D01*
X75104D01*
X75297Y59555D01*
X75445Y59703D01*
X75525Y59896D01*
Y59900D01*
D02*
G37*
G36*
X74900D02*
X74475D01*
Y59896D01*
X74555Y59703D01*
X74703Y59555D01*
X74896Y59475D01*
X74900D01*
Y59900D01*
D02*
G37*
G36*
X65525D02*
X65100D01*
Y59475D01*
X65104D01*
X65297Y59555D01*
X65445Y59703D01*
X65525Y59896D01*
Y59900D01*
D02*
G37*
G36*
X64900D02*
X64475D01*
Y59896D01*
X64555Y59703D01*
X64703Y59555D01*
X64896Y59475D01*
X64900D01*
Y59900D01*
D02*
G37*
G36*
X55525D02*
X55100D01*
Y59475D01*
X55104D01*
X55297Y59555D01*
X55445Y59703D01*
X55525Y59896D01*
Y59900D01*
D02*
G37*
G36*
X54900D02*
X54475D01*
Y59896D01*
X54555Y59703D01*
X54703Y59555D01*
X54896Y59475D01*
X54900D01*
Y59900D01*
D02*
G37*
G36*
X45525D02*
X45100D01*
Y59475D01*
X45104D01*
X45297Y59555D01*
X45445Y59703D01*
X45525Y59896D01*
Y59900D01*
D02*
G37*
G36*
X44900D02*
X44475D01*
Y59896D01*
X44555Y59703D01*
X44703Y59555D01*
X44896Y59475D01*
X44900D01*
Y59900D01*
D02*
G37*
G36*
X35525D02*
X35100D01*
Y59475D01*
X35104D01*
X35297Y59555D01*
X35445Y59703D01*
X35525Y59896D01*
Y59900D01*
D02*
G37*
G36*
X34900D02*
X34475D01*
Y59896D01*
X34555Y59703D01*
X34703Y59555D01*
X34896Y59475D01*
X34900D01*
Y59900D01*
D02*
G37*
G36*
X25525D02*
X25100D01*
Y59475D01*
X25104D01*
X25297Y59555D01*
X25445Y59703D01*
X25525Y59896D01*
Y59900D01*
D02*
G37*
G36*
X24900D02*
X24475D01*
Y59896D01*
X24555Y59703D01*
X24703Y59555D01*
X24896Y59475D01*
X24900D01*
Y59900D01*
D02*
G37*
G36*
X15525D02*
X15100D01*
Y59475D01*
X15104D01*
X15297Y59555D01*
X15445Y59703D01*
X15525Y59896D01*
Y59900D01*
D02*
G37*
G36*
X14900D02*
X14475D01*
Y59896D01*
X14555Y59703D01*
X14703Y59555D01*
X14896Y59475D01*
X14900D01*
Y59900D01*
D02*
G37*
G36*
X78965Y59850D02*
X78560D01*
Y59445D01*
X78560D01*
X78746Y59522D01*
X78888Y59664D01*
X78965Y59850D01*
Y59850D01*
D02*
G37*
G36*
X78360D02*
X77955D01*
Y59850D01*
X78032Y59664D01*
X78174Y59522D01*
X78360Y59445D01*
X78360D01*
Y59850D01*
D02*
G37*
G36*
X41730Y59268D02*
X41730D01*
Y58863D01*
X42135D01*
Y58863D01*
X42058Y59049D01*
X41916Y59191D01*
X41730Y59268D01*
D02*
G37*
G36*
X41530D02*
X41530D01*
X41344Y59191D01*
X41202Y59049D01*
X41125Y58863D01*
Y58863D01*
X41530D01*
Y59268D01*
D02*
G37*
G36*
X42135Y58663D02*
X41730D01*
Y58258D01*
X41730D01*
X41916Y58335D01*
X42058Y58477D01*
X42135Y58663D01*
Y58663D01*
D02*
G37*
G36*
X41530D02*
X41125D01*
Y58663D01*
X41202Y58477D01*
X41344Y58335D01*
X41530Y58258D01*
X41530D01*
Y58663D01*
D02*
G37*
G36*
X3520Y58187D02*
X2520D01*
X2350Y58164D01*
X2192Y58099D01*
X2056Y57994D01*
X1951Y57858D01*
X1886Y57700D01*
X1863Y57530D01*
X1886Y57360D01*
X1951Y57202D01*
X2056Y57066D01*
X2192Y56961D01*
X2350Y56896D01*
X2520Y56873D01*
X3520D01*
X3690Y56896D01*
X3848Y56961D01*
X3984Y57066D01*
X4089Y57202D01*
X4154Y57360D01*
X4177Y57530D01*
X4154Y57700D01*
X4089Y57858D01*
X3984Y57994D01*
X3848Y58099D01*
X3690Y58164D01*
X3520Y58187D01*
D02*
G37*
G36*
X7725Y58212D02*
X6675D01*
X6499Y58189D01*
X6334Y58120D01*
X6193Y58012D01*
X6085Y57871D01*
X6016Y57706D01*
X5993Y57530D01*
X6016Y57354D01*
X6085Y57189D01*
X6193Y57048D01*
X6334Y56940D01*
X6499Y56871D01*
X6675Y56848D01*
X7725D01*
X7901Y56871D01*
X8066Y56940D01*
X8207Y57048D01*
X8315Y57189D01*
X8384Y57354D01*
X8407Y57530D01*
X8384Y57706D01*
X8315Y57871D01*
X8207Y58012D01*
X8066Y58120D01*
X7901Y58189D01*
X7725Y58212D01*
D02*
G37*
G36*
X6795Y56576D02*
X6605D01*
X6430Y56504D01*
X6296Y56370D01*
X6224Y56195D01*
Y56005D01*
X6296Y55830D01*
X6430Y55696D01*
X6605Y55624D01*
X6795D01*
X6970Y55696D01*
X7104Y55830D01*
X7176Y56005D01*
Y56195D01*
X7104Y56370D01*
X6970Y56504D01*
X6795Y56576D01*
D02*
G37*
G36*
X39166Y54613D02*
X37666D01*
Y53113D01*
X39166D01*
Y54613D01*
D02*
G37*
G36*
X37466D02*
X35966D01*
Y53113D01*
X37466D01*
Y54613D01*
D02*
G37*
G36*
X83001Y53482D02*
X81351D01*
Y51832D01*
X83001D01*
Y53482D01*
D02*
G37*
G36*
X81151D02*
X79501D01*
Y51832D01*
X81151D01*
Y53482D01*
D02*
G37*
G36*
X39166Y52913D02*
X37666D01*
Y51413D01*
X39166D01*
Y52913D01*
D02*
G37*
G36*
X37466D02*
X35966D01*
Y51413D01*
X37466D01*
Y52913D01*
D02*
G37*
G36*
X100104Y50525D02*
X100100D01*
Y50100D01*
X100525D01*
Y50104D01*
X100445Y50297D01*
X100297Y50445D01*
X100104Y50525D01*
D02*
G37*
G36*
X99900D02*
X99896D01*
X99703Y50445D01*
X99555Y50297D01*
X99475Y50104D01*
Y50100D01*
X99900D01*
Y50525D01*
D02*
G37*
G36*
X90104D02*
X90100D01*
Y50100D01*
X90525D01*
Y50104D01*
X90445Y50297D01*
X90297Y50445D01*
X90104Y50525D01*
D02*
G37*
G36*
X89900D02*
X89896D01*
X89703Y50445D01*
X89555Y50297D01*
X89475Y50104D01*
Y50100D01*
X89900D01*
Y50525D01*
D02*
G37*
G36*
X70104D02*
X70100D01*
Y50100D01*
X70525D01*
Y50104D01*
X70445Y50297D01*
X70297Y50445D01*
X70104Y50525D01*
D02*
G37*
G36*
X69900D02*
X69896D01*
X69703Y50445D01*
X69555Y50297D01*
X69475Y50104D01*
Y50100D01*
X69900D01*
Y50525D01*
D02*
G37*
G36*
X60104D02*
X60100D01*
Y50100D01*
X60525D01*
Y50104D01*
X60445Y50297D01*
X60297Y50445D01*
X60104Y50525D01*
D02*
G37*
G36*
X59900D02*
X59896D01*
X59703Y50445D01*
X59555Y50297D01*
X59475Y50104D01*
Y50100D01*
X59900D01*
Y50525D01*
D02*
G37*
G36*
X50104D02*
X50100D01*
Y50100D01*
X50525D01*
Y50104D01*
X50445Y50297D01*
X50297Y50445D01*
X50104Y50525D01*
D02*
G37*
G36*
X49900D02*
X49896D01*
X49703Y50445D01*
X49555Y50297D01*
X49475Y50104D01*
Y50100D01*
X49900D01*
Y50525D01*
D02*
G37*
G36*
X30104D02*
X30100D01*
Y50100D01*
X30525D01*
Y50104D01*
X30445Y50297D01*
X30297Y50445D01*
X30104Y50525D01*
D02*
G37*
G36*
X29900D02*
X29896D01*
X29703Y50445D01*
X29555Y50297D01*
X29475Y50104D01*
Y50100D01*
X29900D01*
Y50525D01*
D02*
G37*
G36*
X83001Y51632D02*
X81351D01*
Y49982D01*
X83001D01*
Y51632D01*
D02*
G37*
G36*
X81151D02*
X79501D01*
Y49982D01*
X81151D01*
Y51632D01*
D02*
G37*
G36*
X6795Y50796D02*
X6605D01*
X6430Y50724D01*
X6296Y50590D01*
X6224Y50415D01*
Y50225D01*
X6296Y50050D01*
X6430Y49916D01*
X6605Y49844D01*
X6795D01*
X6970Y49916D01*
X7104Y50050D01*
X7176Y50225D01*
Y50415D01*
X7104Y50590D01*
X6970Y50724D01*
X6795Y50796D01*
D02*
G37*
G36*
X104299Y63448D02*
X104118D01*
X103950Y63379D01*
X103822Y63250D01*
X103752Y63083D01*
Y62937D01*
X90628Y49812D01*
X90520Y49884D01*
X90525Y49896D01*
Y49900D01*
X90100D01*
Y49475D01*
X90104D01*
X90116Y49480D01*
X90188Y49372D01*
X71191Y30375D01*
X63471D01*
X63446Y30502D01*
X63448Y30503D01*
X63577Y30632D01*
X63646Y30799D01*
Y30981D01*
X63577Y31148D01*
X63448Y31277D01*
X63281Y31346D01*
X63099D01*
X62932Y31277D01*
X62879Y31223D01*
X55980D01*
X55972Y31243D01*
X55843Y31372D01*
X55676Y31441D01*
X55494D01*
X55327Y31372D01*
X55198Y31243D01*
X55129Y31076D01*
Y30894D01*
X55198Y30727D01*
X55319Y30606D01*
X55326Y30564D01*
X55325Y30462D01*
X55213Y30350D01*
X55144Y30183D01*
Y30001D01*
X55213Y29834D01*
X55342Y29705D01*
X55509Y29636D01*
X55691D01*
X55858Y29705D01*
X55961Y29809D01*
X67018D01*
X67043Y29682D01*
X66914Y29628D01*
X66772Y29486D01*
X66695Y29300D01*
Y29300D01*
X67705D01*
Y29300D01*
X67628Y29486D01*
X67486Y29628D01*
X67357Y29682D01*
X67382Y29809D01*
X71308D01*
X71417Y29830D01*
X71509Y29892D01*
X104153Y62536D01*
X104299D01*
X104467Y62605D01*
X104595Y62734D01*
X104664Y62901D01*
Y63083D01*
X104595Y63250D01*
X104467Y63379D01*
X104299Y63448D01*
D02*
G37*
G36*
X100525Y49900D02*
X100100D01*
Y49475D01*
X100104D01*
X100297Y49555D01*
X100445Y49703D01*
X100525Y49896D01*
Y49900D01*
D02*
G37*
G36*
X99900D02*
X99475D01*
Y49896D01*
X99555Y49703D01*
X99703Y49555D01*
X99896Y49475D01*
X99900D01*
Y49900D01*
D02*
G37*
G36*
X89900D02*
X89475D01*
Y49896D01*
X89555Y49703D01*
X89703Y49555D01*
X89896Y49475D01*
X89900D01*
Y49900D01*
D02*
G37*
G36*
X70525D02*
X70100D01*
Y49475D01*
X70104D01*
X70297Y49555D01*
X70445Y49703D01*
X70525Y49896D01*
Y49900D01*
D02*
G37*
G36*
X69900D02*
X69475D01*
Y49896D01*
X69555Y49703D01*
X69703Y49555D01*
X69896Y49475D01*
X69900D01*
Y49900D01*
D02*
G37*
G36*
X60525D02*
X60100D01*
Y49475D01*
X60104D01*
X60297Y49555D01*
X60445Y49703D01*
X60525Y49896D01*
Y49900D01*
D02*
G37*
G36*
X59900D02*
X59475D01*
Y49896D01*
X59555Y49703D01*
X59703Y49555D01*
X59896Y49475D01*
X59900D01*
Y49900D01*
D02*
G37*
G36*
X50525D02*
X50100D01*
Y49475D01*
X50104D01*
X50297Y49555D01*
X50445Y49703D01*
X50525Y49896D01*
Y49900D01*
D02*
G37*
G36*
X49900D02*
X49475D01*
Y49896D01*
X49555Y49703D01*
X49703Y49555D01*
X49896Y49475D01*
X49900D01*
Y49900D01*
D02*
G37*
G36*
X30525D02*
X30100D01*
Y49475D01*
X30104D01*
X30297Y49555D01*
X30445Y49703D01*
X30525Y49896D01*
Y49900D01*
D02*
G37*
G36*
X29900D02*
X29475D01*
Y49896D01*
X29555Y49703D01*
X29703Y49555D01*
X29896Y49475D01*
X29900D01*
Y49900D01*
D02*
G37*
G36*
X3520Y49547D02*
X2520D01*
X2350Y49524D01*
X2192Y49459D01*
X2056Y49354D01*
X1951Y49218D01*
X1886Y49060D01*
X1863Y48890D01*
X1886Y48720D01*
X1951Y48562D01*
X2056Y48426D01*
X2192Y48321D01*
X2350Y48256D01*
X2520Y48233D01*
X3520D01*
X3690Y48256D01*
X3848Y48321D01*
X3984Y48426D01*
X4089Y48562D01*
X4154Y48720D01*
X4177Y48890D01*
X4154Y49060D01*
X4089Y49218D01*
X3984Y49354D01*
X3848Y49459D01*
X3690Y49524D01*
X3520Y49547D01*
D02*
G37*
G36*
X7725Y49572D02*
X6675D01*
X6499Y49549D01*
X6334Y49480D01*
X6193Y49372D01*
X6085Y49231D01*
X6016Y49066D01*
X5993Y48890D01*
X6016Y48714D01*
X6085Y48549D01*
X6193Y48408D01*
X6334Y48300D01*
X6499Y48231D01*
X6675Y48208D01*
X7725D01*
X7901Y48231D01*
X8066Y48300D01*
X8207Y48408D01*
X8315Y48549D01*
X8384Y48714D01*
X8407Y48890D01*
X8384Y49066D01*
X8315Y49231D01*
X8207Y49372D01*
X8066Y49480D01*
X7901Y49549D01*
X7725Y49572D01*
D02*
G37*
G36*
X12003Y53366D02*
X11821D01*
X11654Y53297D01*
X11525Y53168D01*
X11456Y53001D01*
Y52819D01*
X11525Y52652D01*
X11654Y52523D01*
X11821Y52454D01*
X11967D01*
X15820Y48601D01*
Y45350D01*
X15717Y45247D01*
X15648Y45080D01*
Y44898D01*
X15717Y44731D01*
X15845Y44602D01*
X16013Y44533D01*
X16194D01*
X16362Y44602D01*
X16490Y44731D01*
X16559Y44898D01*
Y45080D01*
X16490Y45247D01*
X16387Y45350D01*
Y48718D01*
X16365Y48827D01*
X16304Y48919D01*
X12368Y52855D01*
Y53001D01*
X12299Y53168D01*
X12170Y53297D01*
X12003Y53366D01*
D02*
G37*
G36*
X9717Y54310D02*
X9535D01*
X9368Y54241D01*
X9239Y54112D01*
X9170Y53945D01*
Y53763D01*
X9239Y53596D01*
X9368Y53467D01*
X9535Y53398D01*
X9681D01*
X12899Y50181D01*
Y45350D01*
X12795Y45247D01*
X12726Y45080D01*
Y44898D01*
X12795Y44731D01*
X12924Y44602D01*
X13091Y44533D01*
X13273D01*
X13440Y44602D01*
X13569Y44731D01*
X13638Y44898D01*
Y45080D01*
X13569Y45247D01*
X13465Y45350D01*
Y50298D01*
X13444Y50406D01*
X13382Y50498D01*
X10082Y53799D01*
Y53945D01*
X10013Y54112D01*
X9884Y54241D01*
X9717Y54310D01*
D02*
G37*
G36*
X60591Y44656D02*
X60409D01*
X60242Y44587D01*
X60139Y44483D01*
X53800D01*
X53692Y44462D01*
X53600Y44400D01*
X48755Y39556D01*
X48609D01*
X48442Y39487D01*
X48313Y39358D01*
X48244Y39191D01*
Y39009D01*
X48313Y38842D01*
X48442Y38713D01*
X48609Y38644D01*
X48791D01*
X48958Y38713D01*
X49087Y38842D01*
X49156Y39009D01*
Y39155D01*
X53917Y43917D01*
X60139D01*
X60242Y43813D01*
X60409Y43744D01*
X60591D01*
X60758Y43813D01*
X60887Y43942D01*
X60956Y44109D01*
Y44291D01*
X60887Y44458D01*
X60758Y44587D01*
X60591Y44656D01*
D02*
G37*
G36*
X115104Y40525D02*
X115100D01*
Y40100D01*
X115525D01*
Y40104D01*
X115445Y40297D01*
X115297Y40445D01*
X115104Y40525D01*
D02*
G37*
G36*
X114900D02*
X114896D01*
X114703Y40445D01*
X114555Y40297D01*
X114475Y40104D01*
Y40100D01*
X114900D01*
Y40525D01*
D02*
G37*
G36*
X25104D02*
X25100D01*
Y40100D01*
X25525D01*
Y40104D01*
X25445Y40297D01*
X25297Y40445D01*
X25104Y40525D01*
D02*
G37*
G36*
X24900D02*
X24896D01*
X24703Y40445D01*
X24555Y40297D01*
X24475Y40104D01*
Y40100D01*
X24900D01*
Y40525D01*
D02*
G37*
G36*
X15104D02*
X15100D01*
Y40100D01*
X15525D01*
Y40104D01*
X15445Y40297D01*
X15297Y40445D01*
X15104Y40525D01*
D02*
G37*
G36*
X14900D02*
X14896D01*
X14703Y40445D01*
X14555Y40297D01*
X14475Y40104D01*
Y40100D01*
X14900D01*
Y40525D01*
D02*
G37*
G36*
X115525Y39900D02*
X115100D01*
Y39475D01*
X115104D01*
X115297Y39555D01*
X115445Y39703D01*
X115525Y39896D01*
Y39900D01*
D02*
G37*
G36*
X114900D02*
X114475D01*
Y39896D01*
X114555Y39703D01*
X114703Y39555D01*
X114896Y39475D01*
X114900D01*
Y39900D01*
D02*
G37*
G36*
X25525D02*
X25100D01*
Y39475D01*
X25104D01*
X25297Y39555D01*
X25445Y39703D01*
X25525Y39896D01*
Y39900D01*
D02*
G37*
G36*
X24900D02*
X24475D01*
Y39896D01*
X24555Y39703D01*
X24703Y39555D01*
X24896Y39475D01*
X24900D01*
Y39900D01*
D02*
G37*
G36*
X15525D02*
X15100D01*
Y39475D01*
X15104D01*
X15297Y39555D01*
X15445Y39703D01*
X15525Y39896D01*
Y39900D01*
D02*
G37*
G36*
X14900D02*
X14475D01*
Y39896D01*
X14555Y39703D01*
X14703Y39555D01*
X14896Y39475D01*
X14900D01*
Y39900D01*
D02*
G37*
G36*
X52791Y42156D02*
X52609D01*
X52442Y42087D01*
X52313Y41958D01*
X52244Y41791D01*
Y41645D01*
X46383Y35783D01*
X29961D01*
X29858Y35887D01*
X29691Y35956D01*
X29509D01*
X29342Y35887D01*
X29213Y35758D01*
X29144Y35591D01*
Y35409D01*
X29213Y35242D01*
X29342Y35113D01*
X29509Y35044D01*
X29691D01*
X29858Y35113D01*
X29961Y35217D01*
X46500D01*
X46608Y35238D01*
X46700Y35300D01*
X52645Y41244D01*
X52791D01*
X52958Y41313D01*
X53061Y41417D01*
X56483D01*
X58127Y39772D01*
X58113Y39758D01*
X58044Y39591D01*
Y39409D01*
X58113Y39242D01*
X58242Y39113D01*
X58409Y39044D01*
X58591D01*
X58758Y39113D01*
X58887Y39242D01*
X58956Y39409D01*
Y39591D01*
X58887Y39758D01*
X58758Y39887D01*
X58707Y39908D01*
X58694Y39977D01*
X58632Y40069D01*
X56800Y41900D01*
X56708Y41962D01*
X56600Y41983D01*
X53061D01*
X52958Y42087D01*
X52791Y42156D01*
D02*
G37*
G36*
X108739Y38698D02*
X108539D01*
X108345Y38646D01*
X108171Y38546D01*
X108029Y38404D01*
X107929Y38230D01*
X107877Y38036D01*
Y37836D01*
X107925Y37656D01*
X106883Y36614D01*
X106817Y36515D01*
X106793Y36397D01*
Y35959D01*
X106666Y35906D01*
X106567Y36006D01*
X106393Y36106D01*
X106199Y36158D01*
X105999D01*
X105805Y36106D01*
X105631Y36006D01*
X105489Y35864D01*
X105389Y35690D01*
X105337Y35496D01*
Y35296D01*
X105389Y35102D01*
X105489Y34928D01*
X105631Y34786D01*
X105805Y34686D01*
X105999Y34634D01*
X106199D01*
X106393Y34686D01*
X106567Y34786D01*
X106666Y34886D01*
X106793Y34833D01*
Y17975D01*
X106714Y17895D01*
X106644Y17727D01*
Y17546D01*
X106714Y17378D01*
X106817Y17275D01*
Y12217D01*
X103283Y8683D01*
X97140D01*
X97032Y8662D01*
X96940Y8600D01*
X94682Y6343D01*
X94607Y6386D01*
X94365Y6451D01*
X94115D01*
X93873Y6386D01*
X93656Y6261D01*
X93479Y6084D01*
X93354Y5867D01*
X93289Y5625D01*
Y5375D01*
X93354Y5133D01*
X93479Y4916D01*
X93656Y4739D01*
X93873Y4614D01*
X94115Y4549D01*
X94365D01*
X94607Y4614D01*
X94824Y4739D01*
X95001Y4916D01*
X95126Y5133D01*
X95191Y5375D01*
Y5625D01*
X95126Y5867D01*
X95083Y5942D01*
X97257Y8117D01*
X103401D01*
X103509Y8138D01*
X103601Y8200D01*
X107301Y11899D01*
X107362Y11991D01*
X107384Y12100D01*
Y17275D01*
X107487Y17378D01*
X107556Y17546D01*
Y17727D01*
X107487Y17895D01*
X107407Y17975D01*
Y36270D01*
X108359Y37222D01*
X108539Y37174D01*
X108739D01*
X108933Y37226D01*
X109107Y37326D01*
X109249Y37468D01*
X109349Y37642D01*
X109401Y37836D01*
Y38036D01*
X109349Y38230D01*
X109249Y38404D01*
X109107Y38546D01*
X108933Y38646D01*
X108739Y38698D01*
D02*
G37*
G36*
X46729Y40826D02*
X46547D01*
X46380Y40757D01*
X46251Y40628D01*
X46182Y40461D01*
Y40315D01*
X42651Y36783D01*
X31561D01*
X31458Y36887D01*
X31291Y36956D01*
X31109D01*
X30942Y36887D01*
X30813Y36758D01*
X30744Y36591D01*
Y36409D01*
X30813Y36242D01*
X30942Y36113D01*
X31109Y36044D01*
X31291D01*
X31458Y36113D01*
X31561Y36217D01*
X42768D01*
X42876Y36238D01*
X42968Y36300D01*
X46583Y39914D01*
X46729D01*
X46896Y39983D01*
X47025Y40112D01*
X47094Y40279D01*
Y40461D01*
X47025Y40628D01*
X46896Y40757D01*
X46729Y40826D01*
D02*
G37*
G36*
X60081Y52111D02*
X59899D01*
X59732Y52042D01*
X59603Y51913D01*
X59534Y51746D01*
Y51564D01*
X59603Y51397D01*
X59732Y51268D01*
X59899Y51199D01*
X60081D01*
X60248Y51268D01*
X60351Y51372D01*
X65328D01*
X65800Y50899D01*
Y43187D01*
X58651Y36039D01*
X58501Y36068D01*
X58468Y36150D01*
X58414Y36204D01*
X58443Y36354D01*
X58486Y36372D01*
X58628Y36514D01*
X58705Y36700D01*
Y36700D01*
X58200D01*
Y36900D01*
X58705D01*
Y36900D01*
X58628Y37086D01*
X58486Y37228D01*
X58343Y37287D01*
X58299Y37422D01*
X65130Y44254D01*
X65192Y44346D01*
X65213Y44454D01*
Y50104D01*
X65317Y50207D01*
X65386Y50374D01*
Y50556D01*
X65317Y50723D01*
X65188Y50852D01*
X65021Y50921D01*
X64839D01*
X64672Y50852D01*
X64543Y50723D01*
X64474Y50556D01*
Y50374D01*
X64543Y50207D01*
X64647Y50104D01*
Y44572D01*
X53134Y33059D01*
X53007Y33108D01*
Y36162D01*
X53087Y36242D01*
X53156Y36409D01*
Y36591D01*
X53087Y36758D01*
X52958Y36887D01*
X52791Y36956D01*
X52609D01*
X52442Y36887D01*
X52313Y36758D01*
X52244Y36591D01*
Y36409D01*
X52313Y36242D01*
X52393Y36162D01*
Y34865D01*
X29069D01*
X26607Y37327D01*
Y38262D01*
X26687Y38342D01*
X26756Y38509D01*
Y38691D01*
X26687Y38858D01*
X26558Y38987D01*
X26391Y39056D01*
X26209D01*
X26042Y38987D01*
X25962Y38907D01*
X17953D01*
X17835Y38884D01*
X17736Y38817D01*
X16125Y37207D01*
X16013D01*
X15845Y37137D01*
X15717Y37009D01*
X15648Y36841D01*
Y36660D01*
X15717Y36492D01*
X15845Y36364D01*
X16013Y36295D01*
X16194D01*
X16362Y36364D01*
X16490Y36492D01*
X16559Y36660D01*
Y36773D01*
X18080Y38293D01*
X25962D01*
X25993Y38262D01*
Y37200D01*
X26016Y37083D01*
X26083Y36983D01*
X28725Y34341D01*
X28824Y34275D01*
X28942Y34251D01*
X52393D01*
Y31787D01*
X52107Y31501D01*
X51999Y31573D01*
X52056Y31709D01*
Y31891D01*
X51987Y32058D01*
X51858Y32187D01*
X51691Y32256D01*
X51509D01*
X51342Y32187D01*
X51239Y32083D01*
X25100D01*
X24992Y32062D01*
X24900Y32000D01*
X22583Y29683D01*
X16297D01*
X15079Y30902D01*
Y31048D01*
X15010Y31215D01*
X14881Y31344D01*
X14714Y31413D01*
X14532D01*
X14365Y31344D01*
X14236Y31215D01*
X14167Y31048D01*
Y30866D01*
X14236Y30699D01*
X14365Y30570D01*
X14532Y30501D01*
X14678D01*
X15980Y29200D01*
X16072Y29138D01*
X16180Y29117D01*
X22700D01*
X22808Y29138D01*
X22900Y29200D01*
X25217Y31517D01*
X51239D01*
X51342Y31413D01*
X51509Y31344D01*
X51691D01*
X51827Y31401D01*
X51899Y31293D01*
X44967Y24360D01*
X44964D01*
X44922Y24402D01*
X44755Y24472D01*
X44752D01*
X44699Y24599D01*
X45600Y25500D01*
X45662Y25592D01*
X45683Y25700D01*
Y30539D01*
X45787Y30642D01*
X45856Y30809D01*
Y30991D01*
X45787Y31158D01*
X45658Y31287D01*
X45491Y31356D01*
X45309D01*
X45142Y31287D01*
X45013Y31158D01*
X44944Y30991D01*
Y30809D01*
X45013Y30642D01*
X45117Y30539D01*
Y25817D01*
X31455Y12156D01*
X31309D01*
X31142Y12087D01*
X31013Y11958D01*
X30944Y11791D01*
Y11609D01*
X31013Y11442D01*
X31142Y11313D01*
X31309Y11244D01*
X31491D01*
X31658Y11313D01*
X31787Y11442D01*
X31856Y11609D01*
Y11755D01*
X44081Y23980D01*
X44208Y23928D01*
Y23925D01*
X44277Y23757D01*
X44406Y23629D01*
X44573Y23560D01*
X44755D01*
X44922Y23629D01*
X45040Y23746D01*
X45094D01*
X45211Y23770D01*
X45311Y23836D01*
X52890Y31415D01*
X52998Y31382D01*
X53017Y31368D01*
Y29717D01*
X52355Y29056D01*
X52209D01*
X52042Y28987D01*
X51913Y28858D01*
X51844Y28691D01*
Y28509D01*
X51913Y28342D01*
X51945Y28310D01*
X51892Y28183D01*
X50500D01*
X50392Y28162D01*
X50300Y28100D01*
X33122Y10923D01*
X27958D01*
X27246Y11635D01*
Y11781D01*
X27177Y11948D01*
X27048Y12077D01*
X26881Y12146D01*
X26699D01*
X26532Y12077D01*
X26403Y11948D01*
X26334Y11781D01*
Y11599D01*
X26403Y11432D01*
X26532Y11303D01*
X26699Y11234D01*
X26845D01*
X27478Y10601D01*
X27430Y10483D01*
X23107D01*
X21956Y11635D01*
Y11781D01*
X21887Y11948D01*
X21758Y12077D01*
X21591Y12146D01*
X21409D01*
X21242Y12077D01*
X21113Y11948D01*
X21044Y11781D01*
Y11599D01*
X21113Y11432D01*
X21242Y11303D01*
X21409Y11234D01*
X21555D01*
X22790Y10000D01*
X22882Y9938D01*
X22990Y9917D01*
X33373D01*
X33481Y9938D01*
X33573Y10000D01*
X42926Y19353D01*
X43043Y19290D01*
X43034Y19241D01*
Y19030D01*
X42876Y18873D01*
X42730D01*
X42563Y18804D01*
X42434Y18675D01*
X42365Y18508D01*
Y18326D01*
X42434Y18159D01*
X42563Y18030D01*
X42730Y17961D01*
X42912D01*
X43079Y18030D01*
X43208Y18159D01*
X43277Y18326D01*
Y18472D01*
X43517Y18713D01*
X43540Y18715D01*
X43642Y18613D01*
X43809Y18544D01*
X43991D01*
X44158Y18613D01*
X44287Y18742D01*
X44356Y18909D01*
Y19055D01*
X44895Y19594D01*
X45022Y19542D01*
Y19499D01*
X45091Y19332D01*
X45220Y19203D01*
X45387Y19134D01*
X45569D01*
X45736Y19203D01*
X45865Y19332D01*
X45934Y19499D01*
Y19645D01*
X49705Y23417D01*
X62766D01*
X62874Y23438D01*
X62966Y23500D01*
X64686Y25220D01*
X64777D01*
X64859Y25171D01*
X64893Y25108D01*
Y18938D01*
X64813Y18858D01*
X64744Y18691D01*
Y18509D01*
X64813Y18342D01*
X64942Y18213D01*
X65109Y18144D01*
X65291D01*
X65458Y18213D01*
X65587Y18342D01*
X65656Y18509D01*
Y18691D01*
X65587Y18858D01*
X65507Y18938D01*
Y25023D01*
X67178Y26694D01*
X67291D01*
X67458Y26763D01*
X67587Y26892D01*
X67656Y27059D01*
Y27241D01*
X67587Y27408D01*
X67458Y27537D01*
X67291Y27606D01*
X67109D01*
X66942Y27537D01*
X66813Y27408D01*
X66744Y27241D01*
Y27128D01*
X65325Y25709D01*
X65198Y25761D01*
Y25766D01*
X65128Y25934D01*
X65000Y26062D01*
X64832Y26132D01*
X64651D01*
X64483Y26062D01*
X64355Y25934D01*
X64286Y25766D01*
Y25621D01*
X62648Y23983D01*
X49588D01*
X49480Y23962D01*
X49388Y23900D01*
X45626Y20138D01*
X45620Y20140D01*
X45578Y20277D01*
X49417Y24117D01*
X61900D01*
X62008Y24138D01*
X62100Y24200D01*
X63745Y25844D01*
X63891D01*
X64058Y25913D01*
X64187Y26042D01*
X64256Y26209D01*
Y26391D01*
X64187Y26558D01*
X64058Y26687D01*
X63891Y26756D01*
X63709D01*
X63542Y26687D01*
X63413Y26558D01*
X63344Y26391D01*
Y26245D01*
X61783Y24683D01*
X49339D01*
X49286Y24785D01*
X49283Y24806D01*
X49493Y25017D01*
X59239D01*
X59342Y24913D01*
X59509Y24844D01*
X59691D01*
X59858Y24913D01*
X59987Y25042D01*
X60056Y25209D01*
Y25391D01*
X59987Y25558D01*
X59858Y25687D01*
X59691Y25756D01*
X59509D01*
X59342Y25687D01*
X59239Y25583D01*
X49376D01*
X49327Y25574D01*
X49264Y25691D01*
X50785Y27212D01*
X52726D01*
X52834Y27233D01*
X52926Y27295D01*
X54600Y28969D01*
X54662Y29061D01*
X54683Y29169D01*
Y31269D01*
X57283Y33869D01*
X57345Y33961D01*
X57366Y34070D01*
Y34738D01*
X57452Y34812D01*
X57582Y34782D01*
X57603Y34732D01*
X57732Y34603D01*
X57899Y34534D01*
X58081D01*
X58248Y34603D01*
X58377Y34732D01*
X58446Y34899D01*
Y35032D01*
X66284Y42870D01*
X66345Y42961D01*
X66367Y43070D01*
Y51017D01*
X66345Y51125D01*
X66284Y51217D01*
X65645Y51855D01*
X65553Y51917D01*
X65445Y51938D01*
X60351D01*
X60248Y52042D01*
X60081Y52111D01*
D02*
G37*
G36*
X117679Y34277D02*
X116867D01*
Y33464D01*
X117679D01*
Y34277D01*
D02*
G37*
G36*
X116667D02*
X115854D01*
Y33464D01*
X116667D01*
Y34277D01*
D02*
G37*
G36*
X109450Y33667D02*
X108739D01*
Y32956D01*
X109450D01*
Y33667D01*
D02*
G37*
G36*
X108539D02*
X107828D01*
Y32956D01*
X108539D01*
Y33667D01*
D02*
G37*
G36*
X119421Y34228D02*
X119193D01*
X118974Y34169D01*
X118777Y34055D01*
X118616Y33894D01*
X118502Y33697D01*
X118443Y33478D01*
Y33250D01*
X118502Y33031D01*
X118616Y32834D01*
X118777Y32673D01*
X118974Y32559D01*
X119193Y32500D01*
X119421D01*
X119640Y32559D01*
X119837Y32673D01*
X119998Y32834D01*
X120112Y33031D01*
X120171Y33250D01*
Y33478D01*
X120112Y33697D01*
X119998Y33894D01*
X119837Y34055D01*
X119640Y34169D01*
X119421Y34228D01*
D02*
G37*
G36*
X117679Y33264D02*
X116867D01*
Y32451D01*
X117679D01*
Y33264D01*
D02*
G37*
G36*
X116667D02*
X115854D01*
Y32451D01*
X116667D01*
Y33264D01*
D02*
G37*
G36*
X109450Y32756D02*
X108739D01*
Y32045D01*
X109450D01*
Y32756D01*
D02*
G37*
G36*
X108539D02*
X107828D01*
Y32045D01*
X108539D01*
Y32756D01*
D02*
G37*
G36*
X101000Y30705D02*
X101000D01*
Y30300D01*
X101405D01*
Y30300D01*
X101328Y30486D01*
X101186Y30628D01*
X101000Y30705D01*
D02*
G37*
G36*
X100800D02*
X100800D01*
X100614Y30628D01*
X100472Y30486D01*
X100395Y30300D01*
Y30300D01*
X100800D01*
Y30705D01*
D02*
G37*
G36*
X97200D02*
X97200D01*
Y30300D01*
X97605D01*
Y30300D01*
X97528Y30486D01*
X97386Y30628D01*
X97200Y30705D01*
D02*
G37*
G36*
X97000D02*
X97000D01*
X96814Y30628D01*
X96672Y30486D01*
X96595Y30300D01*
Y30300D01*
X97000D01*
Y30705D01*
D02*
G37*
G36*
X94000D02*
X94000D01*
Y30300D01*
X94405D01*
Y30300D01*
X94328Y30486D01*
X94186Y30628D01*
X94000Y30705D01*
D02*
G37*
G36*
X93800D02*
X93800D01*
X93614Y30628D01*
X93472Y30486D01*
X93395Y30300D01*
Y30300D01*
X93800D01*
Y30705D01*
D02*
G37*
G36*
X110104Y30525D02*
X110100D01*
Y30100D01*
X110525D01*
Y30104D01*
X110445Y30297D01*
X110297Y30445D01*
X110104Y30525D01*
D02*
G37*
G36*
X109900D02*
X109896D01*
X109703Y30445D01*
X109555Y30297D01*
X109475Y30104D01*
Y30100D01*
X109900D01*
Y30525D01*
D02*
G37*
G36*
X40104D02*
X40100D01*
Y30100D01*
X40525D01*
Y30104D01*
X40445Y30297D01*
X40297Y30445D01*
X40104Y30525D01*
D02*
G37*
G36*
X39900D02*
X39896D01*
X39703Y30445D01*
X39555Y30297D01*
X39475Y30104D01*
Y30100D01*
X39900D01*
Y30525D01*
D02*
G37*
G36*
X119421Y31688D02*
X119193D01*
X118974Y31629D01*
X118777Y31515D01*
X118616Y31354D01*
X118502Y31157D01*
X118443Y30938D01*
Y30710D01*
X118502Y30491D01*
X118616Y30294D01*
X118777Y30133D01*
X118974Y30019D01*
X119193Y29961D01*
X119421D01*
X119640Y30019D01*
X119837Y30133D01*
X119998Y30294D01*
X120112Y30491D01*
X120171Y30710D01*
Y30938D01*
X120112Y31157D01*
X119998Y31354D01*
X119837Y31515D01*
X119640Y31629D01*
X119421Y31688D01*
D02*
G37*
G36*
X116881D02*
X116653D01*
X116434Y31629D01*
X116237Y31515D01*
X116076Y31354D01*
X115962Y31157D01*
X115904Y30938D01*
Y30710D01*
X115962Y30491D01*
X116076Y30294D01*
X116237Y30133D01*
X116434Y30019D01*
X116653Y29961D01*
X116881D01*
X117100Y30019D01*
X117297Y30133D01*
X117458Y30294D01*
X117572Y30491D01*
X117631Y30710D01*
Y30938D01*
X117572Y31157D01*
X117458Y31354D01*
X117297Y31515D01*
X117100Y31629D01*
X116881Y31688D01*
D02*
G37*
G36*
X20040Y34071D02*
X12166D01*
X12058Y34050D01*
X11966Y33988D01*
X9172Y31194D01*
X9110Y31102D01*
X9089Y30994D01*
Y29323D01*
X8985Y29220D01*
X8916Y29053D01*
Y28871D01*
X8985Y28704D01*
X9114Y28575D01*
X9281Y28506D01*
X9463D01*
X9630Y28575D01*
X9759Y28704D01*
X9828Y28871D01*
Y29053D01*
X9759Y29220D01*
X9655Y29323D01*
Y30877D01*
X12283Y33505D01*
X19923D01*
X22043Y31385D01*
Y30700D01*
X22026Y30694D01*
X21898Y30565D01*
X21829Y30398D01*
Y30216D01*
X21898Y30049D01*
X22026Y29920D01*
X22194Y29851D01*
X22375D01*
X22543Y29920D01*
X22671Y30049D01*
X22740Y30216D01*
Y30398D01*
X22671Y30565D01*
X22609Y30627D01*
Y31502D01*
X22588Y31610D01*
X22526Y31702D01*
X20240Y33988D01*
X20148Y34050D01*
X20040Y34071D01*
D02*
G37*
G36*
X101405Y30100D02*
X101000D01*
Y29695D01*
X101000D01*
X101186Y29772D01*
X101328Y29914D01*
X101405Y30100D01*
Y30100D01*
D02*
G37*
G36*
X100800D02*
X100395D01*
Y30100D01*
X100472Y29914D01*
X100614Y29772D01*
X100800Y29695D01*
X100800D01*
Y30100D01*
D02*
G37*
G36*
X97605D02*
X97200D01*
Y29695D01*
X97200D01*
X97386Y29772D01*
X97528Y29914D01*
X97605Y30100D01*
Y30100D01*
D02*
G37*
G36*
X97000D02*
X96595D01*
Y30100D01*
X96672Y29914D01*
X96814Y29772D01*
X97000Y29695D01*
X97000D01*
Y30100D01*
D02*
G37*
G36*
X94405D02*
X94000D01*
Y29695D01*
X94000D01*
X94186Y29772D01*
X94328Y29914D01*
X94405Y30100D01*
Y30100D01*
D02*
G37*
G36*
X93800D02*
X93395D01*
Y30100D01*
X93472Y29914D01*
X93614Y29772D01*
X93800Y29695D01*
X93800D01*
Y30100D01*
D02*
G37*
G36*
X110525Y29900D02*
X110100D01*
Y29475D01*
X110104D01*
X110297Y29555D01*
X110445Y29703D01*
X110525Y29896D01*
Y29900D01*
D02*
G37*
G36*
X109900D02*
X109475D01*
Y29896D01*
X109555Y29703D01*
X109703Y29555D01*
X109896Y29475D01*
X109900D01*
Y29900D01*
D02*
G37*
G36*
X40525D02*
X40100D01*
Y29475D01*
X40104D01*
X40297Y29555D01*
X40445Y29703D01*
X40525Y29896D01*
Y29900D01*
D02*
G37*
G36*
X39900D02*
X39475D01*
Y29896D01*
X39555Y29703D01*
X39703Y29555D01*
X39896Y29475D01*
X39900D01*
Y29900D01*
D02*
G37*
G36*
X67705Y29100D02*
X67300D01*
Y28695D01*
X67300D01*
X67486Y28772D01*
X67628Y28914D01*
X67705Y29100D01*
Y29100D01*
D02*
G37*
G36*
X67100D02*
X66695D01*
Y29100D01*
X66772Y28914D01*
X66914Y28772D01*
X67100Y28695D01*
X67100D01*
Y29100D01*
D02*
G37*
G36*
X77600Y29051D02*
X77600D01*
Y28646D01*
X78005D01*
Y28646D01*
X77928Y28832D01*
X77786Y28974D01*
X77600Y29051D01*
D02*
G37*
G36*
X77400D02*
X77400D01*
X77214Y28974D01*
X77072Y28832D01*
X76995Y28646D01*
Y28646D01*
X77400D01*
Y29051D01*
D02*
G37*
G36*
X78005Y28446D02*
X77600D01*
Y28041D01*
X77600D01*
X77786Y28118D01*
X77928Y28260D01*
X78005Y28446D01*
Y28446D01*
D02*
G37*
G36*
X77400D02*
X76995D01*
Y28446D01*
X77072Y28260D01*
X77214Y28118D01*
X77400Y28041D01*
X77400D01*
Y28446D01*
D02*
G37*
G36*
X119421Y29147D02*
X119193D01*
X118974Y29089D01*
X118777Y28975D01*
X118616Y28814D01*
X118502Y28617D01*
X118443Y28398D01*
Y28170D01*
X118502Y27951D01*
X118616Y27754D01*
X118777Y27593D01*
X118974Y27479D01*
X119193Y27420D01*
X119421D01*
X119640Y27479D01*
X119837Y27593D01*
X119998Y27754D01*
X120112Y27951D01*
X120171Y28170D01*
Y28398D01*
X120112Y28617D01*
X119998Y28814D01*
X119837Y28975D01*
X119640Y29089D01*
X119421Y29147D01*
D02*
G37*
G36*
X116881D02*
X116653D01*
X116434Y29089D01*
X116237Y28975D01*
X116076Y28814D01*
X115962Y28617D01*
X115904Y28398D01*
Y28170D01*
X115962Y27951D01*
X116076Y27754D01*
X116237Y27593D01*
X116434Y27479D01*
X116653Y27420D01*
X116881D01*
X117100Y27479D01*
X117297Y27593D01*
X117458Y27754D01*
X117572Y27951D01*
X117631Y28170D01*
Y28398D01*
X117572Y28617D01*
X117458Y28814D01*
X117297Y28975D01*
X117100Y29089D01*
X116881Y29147D01*
D02*
G37*
G36*
X92100Y27305D02*
X92100D01*
Y26900D01*
X92505D01*
Y26900D01*
X92428Y27086D01*
X92286Y27228D01*
X92100Y27305D01*
D02*
G37*
G36*
X91900D02*
X91900D01*
X91714Y27228D01*
X91572Y27086D01*
X91495Y26900D01*
Y26900D01*
X91900D01*
Y27305D01*
D02*
G37*
G36*
X92505Y26700D02*
X92100D01*
Y26295D01*
X92100D01*
X92286Y26372D01*
X92428Y26514D01*
X92505Y26700D01*
Y26700D01*
D02*
G37*
G36*
X91900D02*
X91495D01*
Y26700D01*
X91572Y26514D01*
X91714Y26372D01*
X91900Y26295D01*
X91900D01*
Y26700D01*
D02*
G37*
G36*
X119421Y26608D02*
X119193D01*
X118974Y26549D01*
X118777Y26435D01*
X118616Y26274D01*
X118502Y26077D01*
X118443Y25858D01*
Y25630D01*
X118502Y25411D01*
X118616Y25214D01*
X118777Y25053D01*
X118974Y24939D01*
X119193Y24881D01*
X119421D01*
X119640Y24939D01*
X119837Y25053D01*
X119998Y25214D01*
X120112Y25411D01*
X120171Y25630D01*
Y25858D01*
X120112Y26077D01*
X119998Y26274D01*
X119837Y26435D01*
X119640Y26549D01*
X119421Y26608D01*
D02*
G37*
G36*
X116881D02*
X116653D01*
X116434Y26549D01*
X116237Y26435D01*
X116076Y26274D01*
X115962Y26077D01*
X115904Y25858D01*
Y25630D01*
X115962Y25411D01*
X116076Y25214D01*
X116237Y25053D01*
X116434Y24939D01*
X116653Y24881D01*
X116881D01*
X117100Y24939D01*
X117297Y25053D01*
X117458Y25214D01*
X117572Y25411D01*
X117631Y25630D01*
Y25858D01*
X117572Y26077D01*
X117458Y26274D01*
X117297Y26435D01*
X117100Y26549D01*
X116881Y26608D01*
D02*
G37*
G36*
X119421Y24067D02*
X119193D01*
X118974Y24009D01*
X118777Y23895D01*
X118616Y23734D01*
X118502Y23537D01*
X118443Y23318D01*
Y23090D01*
X118502Y22871D01*
X118616Y22674D01*
X118777Y22513D01*
X118974Y22399D01*
X119193Y22340D01*
X119421D01*
X119640Y22399D01*
X119837Y22513D01*
X119998Y22674D01*
X120112Y22871D01*
X120171Y23090D01*
Y23318D01*
X120112Y23537D01*
X119998Y23734D01*
X119837Y23895D01*
X119640Y24009D01*
X119421Y24067D01*
D02*
G37*
G36*
X116881D02*
X116653D01*
X116434Y24009D01*
X116237Y23895D01*
X116076Y23734D01*
X115962Y23537D01*
X115904Y23318D01*
Y23090D01*
X115962Y22871D01*
X116076Y22674D01*
X116237Y22513D01*
X116434Y22399D01*
X116653Y22340D01*
X116881D01*
X117100Y22399D01*
X117297Y22513D01*
X117458Y22674D01*
X117572Y22871D01*
X117631Y23090D01*
Y23318D01*
X117572Y23537D01*
X117458Y23734D01*
X117297Y23895D01*
X117100Y24009D01*
X116881Y24067D01*
D02*
G37*
G36*
X105104Y20525D02*
X105100D01*
Y20100D01*
X105525D01*
Y20104D01*
X105445Y20297D01*
X105297Y20445D01*
X105104Y20525D01*
D02*
G37*
G36*
X104900D02*
X104896D01*
X104703Y20445D01*
X104555Y20297D01*
X104475Y20104D01*
Y20100D01*
X104900D01*
Y20525D01*
D02*
G37*
G36*
X95104D02*
X95100D01*
Y20100D01*
X95525D01*
Y20104D01*
X95445Y20297D01*
X95297Y20445D01*
X95104Y20525D01*
D02*
G37*
G36*
X94900D02*
X94896D01*
X94703Y20445D01*
X94555Y20297D01*
X94475Y20104D01*
Y20100D01*
X94900D01*
Y20525D01*
D02*
G37*
G36*
X85104D02*
X85100D01*
Y20100D01*
X85525D01*
Y20104D01*
X85445Y20297D01*
X85297Y20445D01*
X85104Y20525D01*
D02*
G37*
G36*
X84900D02*
X84896D01*
X84703Y20445D01*
X84555Y20297D01*
X84475Y20104D01*
Y20100D01*
X84900D01*
Y20525D01*
D02*
G37*
G36*
X15104D02*
X15100D01*
Y20100D01*
X15525D01*
Y20104D01*
X15445Y20297D01*
X15297Y20445D01*
X15104Y20525D01*
D02*
G37*
G36*
X14900D02*
X14896D01*
X14703Y20445D01*
X14555Y20297D01*
X14475Y20104D01*
Y20100D01*
X14900D01*
Y20525D01*
D02*
G37*
G36*
X119421Y21528D02*
X119193D01*
X118974Y21469D01*
X118777Y21355D01*
X118616Y21194D01*
X118502Y20997D01*
X118443Y20778D01*
Y20550D01*
X118502Y20331D01*
X118616Y20134D01*
X118777Y19973D01*
X118974Y19859D01*
X119193Y19801D01*
X119421D01*
X119640Y19859D01*
X119837Y19973D01*
X119998Y20134D01*
X120112Y20331D01*
X120171Y20550D01*
Y20778D01*
X120112Y20997D01*
X119998Y21194D01*
X119837Y21355D01*
X119640Y21469D01*
X119421Y21528D01*
D02*
G37*
G36*
X116881D02*
X116653D01*
X116434Y21469D01*
X116237Y21355D01*
X116076Y21194D01*
X115962Y20997D01*
X115904Y20778D01*
Y20550D01*
X115962Y20331D01*
X116076Y20134D01*
X116237Y19973D01*
X116434Y19859D01*
X116653Y19801D01*
X116881D01*
X117100Y19859D01*
X117297Y19973D01*
X117458Y20134D01*
X117572Y20331D01*
X117631Y20550D01*
Y20778D01*
X117572Y20997D01*
X117458Y21194D01*
X117297Y21355D01*
X117100Y21469D01*
X116881Y21528D01*
D02*
G37*
G36*
X105525Y19900D02*
X105100D01*
Y19475D01*
X105104D01*
X105297Y19555D01*
X105445Y19703D01*
X105525Y19896D01*
Y19900D01*
D02*
G37*
G36*
X104900D02*
X104475D01*
Y19896D01*
X104555Y19703D01*
X104703Y19555D01*
X104896Y19475D01*
X104900D01*
Y19900D01*
D02*
G37*
G36*
X95525D02*
X95100D01*
Y19475D01*
X95104D01*
X95297Y19555D01*
X95445Y19703D01*
X95525Y19896D01*
Y19900D01*
D02*
G37*
G36*
X94900D02*
X94475D01*
Y19896D01*
X94555Y19703D01*
X94703Y19555D01*
X94896Y19475D01*
X94900D01*
Y19900D01*
D02*
G37*
G36*
X85525D02*
X85100D01*
Y19475D01*
X85104D01*
X85297Y19555D01*
X85445Y19703D01*
X85525Y19896D01*
Y19900D01*
D02*
G37*
G36*
X84900D02*
X84475D01*
Y19896D01*
X84555Y19703D01*
X84703Y19555D01*
X84896Y19475D01*
X84900D01*
Y19900D01*
D02*
G37*
G36*
X15525D02*
X15100D01*
Y19475D01*
X15104D01*
X15297Y19555D01*
X15445Y19703D01*
X15525Y19896D01*
Y19900D01*
D02*
G37*
G36*
X14900D02*
X14475D01*
Y19896D01*
X14555Y19703D01*
X14703Y19555D01*
X14896Y19475D01*
X14900D01*
Y19900D01*
D02*
G37*
G36*
X119421Y18987D02*
X119193D01*
X118974Y18929D01*
X118777Y18815D01*
X118616Y18654D01*
X118502Y18457D01*
X118443Y18238D01*
Y18010D01*
X118502Y17791D01*
X118616Y17594D01*
X118777Y17433D01*
X118974Y17319D01*
X119193Y17260D01*
X119421D01*
X119640Y17319D01*
X119837Y17433D01*
X119998Y17594D01*
X120112Y17791D01*
X120171Y18010D01*
Y18238D01*
X120112Y18457D01*
X119998Y18654D01*
X119837Y18815D01*
X119640Y18929D01*
X119421Y18987D01*
D02*
G37*
G36*
X116881D02*
X116653D01*
X116434Y18929D01*
X116237Y18815D01*
X116076Y18654D01*
X115962Y18457D01*
X115904Y18238D01*
Y18010D01*
X115962Y17791D01*
X116076Y17594D01*
X116237Y17433D01*
X116434Y17319D01*
X116653Y17260D01*
X116881D01*
X117100Y17319D01*
X117297Y17433D01*
X117458Y17594D01*
X117572Y17791D01*
X117631Y18010D01*
Y18238D01*
X117572Y18457D01*
X117458Y18654D01*
X117297Y18815D01*
X117100Y18929D01*
X116881Y18987D01*
D02*
G37*
G36*
X54254Y17605D02*
X54254D01*
Y17200D01*
X54659D01*
Y17200D01*
X54582Y17386D01*
X54440Y17528D01*
X54254Y17605D01*
D02*
G37*
G36*
X54054D02*
X54054D01*
X53868Y17528D01*
X53726Y17386D01*
X53649Y17200D01*
Y17200D01*
X54054D01*
Y17605D01*
D02*
G37*
G36*
X54659Y17000D02*
X54254D01*
Y16595D01*
X54254D01*
X54440Y16672D01*
X54582Y16814D01*
X54659Y17000D01*
Y17000D01*
D02*
G37*
G36*
X54054D02*
X53649D01*
Y17000D01*
X53726Y16814D01*
X53868Y16672D01*
X54054Y16595D01*
X54054D01*
Y17000D01*
D02*
G37*
G36*
X91700Y16405D02*
X91700D01*
Y16000D01*
X92105D01*
Y16000D01*
X92028Y16186D01*
X91886Y16328D01*
X91700Y16405D01*
D02*
G37*
G36*
X91500D02*
X91500D01*
X91314Y16328D01*
X91172Y16186D01*
X91095Y16000D01*
Y16000D01*
X91500D01*
Y16405D01*
D02*
G37*
G36*
X92105Y15800D02*
X91700D01*
Y15395D01*
X91700D01*
X91886Y15472D01*
X92028Y15614D01*
X92105Y15800D01*
Y15800D01*
D02*
G37*
G36*
X91500D02*
X91095D01*
Y15800D01*
X91172Y15614D01*
X91314Y15472D01*
X91500Y15395D01*
X91500D01*
Y15800D01*
D02*
G37*
G36*
X119421Y16448D02*
X119193D01*
X118974Y16389D01*
X118777Y16275D01*
X118616Y16114D01*
X118502Y15917D01*
X118443Y15698D01*
Y15470D01*
X118502Y15251D01*
X118616Y15054D01*
X118777Y14893D01*
X118974Y14779D01*
X119193Y14720D01*
X119421D01*
X119640Y14779D01*
X119837Y14893D01*
X119998Y15054D01*
X120112Y15251D01*
X120171Y15470D01*
Y15698D01*
X120112Y15917D01*
X119998Y16114D01*
X119837Y16275D01*
X119640Y16389D01*
X119421Y16448D01*
D02*
G37*
G36*
X116881D02*
X116653D01*
X116434Y16389D01*
X116237Y16275D01*
X116076Y16114D01*
X115962Y15917D01*
X115904Y15698D01*
Y15470D01*
X115962Y15251D01*
X116076Y15054D01*
X116237Y14893D01*
X116434Y14779D01*
X116653Y14720D01*
X116881D01*
X117100Y14779D01*
X117297Y14893D01*
X117458Y15054D01*
X117572Y15251D01*
X117631Y15470D01*
Y15698D01*
X117572Y15917D01*
X117458Y16114D01*
X117297Y16275D01*
X117100Y16389D01*
X116881Y16448D01*
D02*
G37*
G36*
X91800Y12705D02*
X91800D01*
Y12300D01*
X92205D01*
Y12300D01*
X92128Y12486D01*
X91986Y12628D01*
X91800Y12705D01*
D02*
G37*
G36*
X91600D02*
X91600D01*
X91414Y12628D01*
X91272Y12486D01*
X91195Y12300D01*
Y12300D01*
X91600D01*
Y12705D01*
D02*
G37*
G36*
X102291Y49756D02*
X102109D01*
X101942Y49687D01*
X101813Y49558D01*
X101744Y49391D01*
Y49209D01*
X101813Y49042D01*
X101917Y48939D01*
Y12561D01*
X101813Y12458D01*
X101744Y12291D01*
Y12109D01*
X101813Y11942D01*
X101942Y11813D01*
X102109Y11744D01*
X102291D01*
X102458Y11813D01*
X102587Y11942D01*
X102656Y12109D01*
Y12291D01*
X102587Y12458D01*
X102483Y12561D01*
Y48939D01*
X102587Y49042D01*
X102656Y49209D01*
Y49391D01*
X102587Y49558D01*
X102458Y49687D01*
X102291Y49756D01*
D02*
G37*
G36*
X92205Y12100D02*
X91800D01*
Y11695D01*
X91800D01*
X91986Y11772D01*
X92128Y11914D01*
X92205Y12100D01*
Y12100D01*
D02*
G37*
G36*
X91600D02*
X91195D01*
Y12100D01*
X91272Y11914D01*
X91414Y11772D01*
X91600Y11695D01*
X91600D01*
Y12100D01*
D02*
G37*
G36*
X110104Y10525D02*
X110100D01*
Y10100D01*
X110525D01*
Y10104D01*
X110445Y10297D01*
X110297Y10445D01*
X110104Y10525D01*
D02*
G37*
G36*
X109900D02*
X109896D01*
X109703Y10445D01*
X109555Y10297D01*
X109475Y10104D01*
Y10100D01*
X109900D01*
Y10525D01*
D02*
G37*
G36*
X100104D02*
X100100D01*
Y10100D01*
X100525D01*
Y10104D01*
X100445Y10297D01*
X100297Y10445D01*
X100104Y10525D01*
D02*
G37*
G36*
X99900D02*
X99896D01*
X99703Y10445D01*
X99555Y10297D01*
X99475Y10104D01*
Y10100D01*
X99900D01*
Y10525D01*
D02*
G37*
G36*
X90104D02*
X90100D01*
Y10100D01*
X90525D01*
Y10104D01*
X90445Y10297D01*
X90297Y10445D01*
X90104Y10525D01*
D02*
G37*
G36*
X89900D02*
X89896D01*
X89703Y10445D01*
X89555Y10297D01*
X89475Y10104D01*
Y10100D01*
X89900D01*
Y10525D01*
D02*
G37*
G36*
X80104D02*
X80100D01*
Y10100D01*
X80525D01*
Y10104D01*
X80445Y10297D01*
X80297Y10445D01*
X80104Y10525D01*
D02*
G37*
G36*
X79900D02*
X79896D01*
X79703Y10445D01*
X79555Y10297D01*
X79475Y10104D01*
Y10100D01*
X79900D01*
Y10525D01*
D02*
G37*
G36*
X40104D02*
X40100D01*
Y10100D01*
X40525D01*
Y10104D01*
X40445Y10297D01*
X40297Y10445D01*
X40104Y10525D01*
D02*
G37*
G36*
X39900D02*
X39896D01*
X39703Y10445D01*
X39555Y10297D01*
X39475Y10104D01*
Y10100D01*
X39900D01*
Y10525D01*
D02*
G37*
G36*
X20104D02*
X20100D01*
Y10100D01*
X20525D01*
Y10104D01*
X20445Y10297D01*
X20297Y10445D01*
X20104Y10525D01*
D02*
G37*
G36*
X19900D02*
X19896D01*
X19703Y10445D01*
X19555Y10297D01*
X19475Y10104D01*
Y10100D01*
X19900D01*
Y10525D01*
D02*
G37*
G36*
X10104D02*
X10100D01*
Y10100D01*
X10525D01*
Y10104D01*
X10445Y10297D01*
X10297Y10445D01*
X10104Y10525D01*
D02*
G37*
G36*
X9900D02*
X9896D01*
X9703Y10445D01*
X9555Y10297D01*
X9475Y10104D01*
Y10100D01*
X9900D01*
Y10525D01*
D02*
G37*
G36*
X110525Y9900D02*
X110100D01*
Y9475D01*
X110104D01*
X110297Y9555D01*
X110445Y9703D01*
X110525Y9896D01*
Y9900D01*
D02*
G37*
G36*
X109900D02*
X109475D01*
Y9896D01*
X109555Y9703D01*
X109703Y9555D01*
X109896Y9475D01*
X109900D01*
Y9900D01*
D02*
G37*
G36*
X100525D02*
X100100D01*
Y9475D01*
X100104D01*
X100297Y9555D01*
X100445Y9703D01*
X100525Y9896D01*
Y9900D01*
D02*
G37*
G36*
X99900D02*
X99475D01*
Y9896D01*
X99555Y9703D01*
X99703Y9555D01*
X99896Y9475D01*
X99900D01*
Y9900D01*
D02*
G37*
G36*
X90525D02*
X90100D01*
Y9475D01*
X90104D01*
X90297Y9555D01*
X90445Y9703D01*
X90525Y9896D01*
Y9900D01*
D02*
G37*
G36*
X89900D02*
X89475D01*
Y9896D01*
X89555Y9703D01*
X89703Y9555D01*
X89896Y9475D01*
X89900D01*
Y9900D01*
D02*
G37*
G36*
X80525D02*
X80100D01*
Y9475D01*
X80104D01*
X80297Y9555D01*
X80445Y9703D01*
X80525Y9896D01*
Y9900D01*
D02*
G37*
G36*
X79900D02*
X79475D01*
Y9896D01*
X79555Y9703D01*
X79703Y9555D01*
X79896Y9475D01*
X79900D01*
Y9900D01*
D02*
G37*
G36*
X40525D02*
X40100D01*
Y9475D01*
X40104D01*
X40297Y9555D01*
X40445Y9703D01*
X40525Y9896D01*
Y9900D01*
D02*
G37*
G36*
X39900D02*
X39475D01*
Y9896D01*
X39555Y9703D01*
X39703Y9555D01*
X39896Y9475D01*
X39900D01*
Y9900D01*
D02*
G37*
G36*
X20525D02*
X20100D01*
Y9475D01*
X20104D01*
X20297Y9555D01*
X20445Y9703D01*
X20525Y9896D01*
Y9900D01*
D02*
G37*
G36*
X19900D02*
X19475D01*
Y9896D01*
X19555Y9703D01*
X19703Y9555D01*
X19896Y9475D01*
X19900D01*
Y9900D01*
D02*
G37*
G36*
X10525D02*
X10100D01*
Y9475D01*
X10104D01*
X10297Y9555D01*
X10445Y9703D01*
X10525Y9896D01*
Y9900D01*
D02*
G37*
G36*
X9900D02*
X9475D01*
Y9896D01*
X9555Y9703D01*
X9703Y9555D01*
X9896Y9475D01*
X9900D01*
Y9900D01*
D02*
G37*
G36*
X65065Y7016D02*
X65030D01*
Y6091D01*
X65955D01*
Y6126D01*
X65885Y6387D01*
X65750Y6620D01*
X65559Y6811D01*
X65326Y6946D01*
X65065Y7016D01*
D02*
G37*
G36*
X64830D02*
X64795D01*
X64534Y6946D01*
X64301Y6811D01*
X64110Y6620D01*
X63975Y6387D01*
X63905Y6126D01*
Y6091D01*
X64830D01*
Y7016D01*
D02*
G37*
G36*
X91832Y6500D02*
X91800D01*
Y5600D01*
X92700D01*
Y5632D01*
X92632Y5886D01*
X92500Y6114D01*
X92314Y6300D01*
X92086Y6432D01*
X91832Y6500D01*
D02*
G37*
G36*
X91600D02*
X91568D01*
X91314Y6432D01*
X91086Y6300D01*
X90900Y6114D01*
X90768Y5886D01*
X90700Y5632D01*
Y5600D01*
X91600D01*
Y6500D01*
D02*
G37*
G36*
X34542Y6486D02*
X34458D01*
Y5186D01*
X35758D01*
Y5270D01*
X35663Y5626D01*
X35478Y5946D01*
X35218Y6206D01*
X34898Y6391D01*
X34542Y6486D01*
D02*
G37*
G36*
X34258D02*
X34174D01*
X33818Y6391D01*
X33498Y6206D01*
X33238Y5946D01*
X33053Y5626D01*
X32958Y5270D01*
Y5186D01*
X34258D01*
Y6486D01*
D02*
G37*
G36*
X60906Y6967D02*
X58954D01*
Y5015D01*
X60906D01*
Y6967D01*
D02*
G37*
G36*
X65955Y5891D02*
X65030D01*
Y4966D01*
X65065D01*
X65326Y5036D01*
X65559Y5171D01*
X65750Y5362D01*
X65885Y5595D01*
X65955Y5856D01*
Y5891D01*
D02*
G37*
G36*
X64830D02*
X63905D01*
Y5856D01*
X63975Y5595D01*
X64110Y5362D01*
X64301Y5171D01*
X64534Y5036D01*
X64795Y4966D01*
X64830D01*
Y5891D01*
D02*
G37*
G36*
X89285Y6451D02*
X89035D01*
X88793Y6386D01*
X88576Y6261D01*
X88399Y6084D01*
X88274Y5867D01*
X88209Y5625D01*
Y5375D01*
X88274Y5133D01*
X88399Y4916D01*
X88576Y4739D01*
X88793Y4614D01*
X89035Y4549D01*
X89285D01*
X89527Y4614D01*
X89744Y4739D01*
X89921Y4916D01*
X90046Y5133D01*
X90111Y5375D01*
Y5625D01*
X90046Y5867D01*
X89921Y6084D01*
X89744Y6261D01*
X89527Y6386D01*
X89285Y6451D01*
D02*
G37*
G36*
X86745D02*
X86495D01*
X86253Y6386D01*
X86036Y6261D01*
X85859Y6084D01*
X85734Y5867D01*
X85669Y5625D01*
Y5375D01*
X85734Y5133D01*
X85859Y4916D01*
X86036Y4739D01*
X86253Y4614D01*
X86495Y4549D01*
X86745D01*
X86987Y4614D01*
X87204Y4739D01*
X87381Y4916D01*
X87506Y5133D01*
X87571Y5375D01*
Y5625D01*
X87506Y5867D01*
X87381Y6084D01*
X87204Y6261D01*
X86987Y6386D01*
X86745Y6451D01*
D02*
G37*
G36*
X84205D02*
X83955D01*
X83713Y6386D01*
X83496Y6261D01*
X83319Y6084D01*
X83194Y5867D01*
X83129Y5625D01*
Y5375D01*
X83194Y5133D01*
X83319Y4916D01*
X83496Y4739D01*
X83713Y4614D01*
X83955Y4549D01*
X84205D01*
X84447Y4614D01*
X84664Y4739D01*
X84841Y4916D01*
X84966Y5133D01*
X85031Y5375D01*
Y5625D01*
X84966Y5867D01*
X84841Y6084D01*
X84664Y6261D01*
X84447Y6386D01*
X84205Y6451D01*
D02*
G37*
G36*
X97260Y6460D02*
X96300D01*
X96116Y6424D01*
X95960Y6320D01*
X95856Y6164D01*
X95820Y5980D01*
Y5020D01*
X95856Y4836D01*
X95960Y4680D01*
X96116Y4576D01*
X96300Y4540D01*
X97260D01*
X97444Y4576D01*
X97600Y4680D01*
X97704Y4836D01*
X97740Y5020D01*
Y5980D01*
X97704Y6164D01*
X97600Y6320D01*
X97444Y6424D01*
X97260Y6460D01*
D02*
G37*
G36*
X92700Y5400D02*
X91800D01*
Y4500D01*
X91832D01*
X92086Y4568D01*
X92314Y4700D01*
X92500Y4886D01*
X92632Y5114D01*
X92700Y5368D01*
Y5400D01*
D02*
G37*
G36*
X91600D02*
X90700D01*
Y5368D01*
X90768Y5114D01*
X90900Y4886D01*
X91086Y4700D01*
X91314Y4568D01*
X91568Y4500D01*
X91600D01*
Y5400D01*
D02*
G37*
G36*
X29536Y6437D02*
X29180D01*
X28837Y6345D01*
X28528Y6167D01*
X28277Y5916D01*
X28099Y5607D01*
X28007Y5264D01*
Y4908D01*
X28099Y4565D01*
X28277Y4256D01*
X28528Y4005D01*
X28837Y3827D01*
X29180Y3735D01*
X29536D01*
X29879Y3827D01*
X30188Y4005D01*
X30439Y4256D01*
X30617Y4565D01*
X30709Y4908D01*
Y5264D01*
X30617Y5607D01*
X30439Y5916D01*
X30188Y6167D01*
X29879Y6345D01*
X29536Y6437D01*
D02*
G37*
G36*
X24536D02*
X24180D01*
X23837Y6345D01*
X23528Y6167D01*
X23277Y5916D01*
X23099Y5607D01*
X23007Y5264D01*
Y4908D01*
X23099Y4565D01*
X23277Y4256D01*
X23528Y4005D01*
X23837Y3827D01*
X24180Y3735D01*
X24536D01*
X24879Y3827D01*
X25188Y4005D01*
X25439Y4256D01*
X25617Y4565D01*
X25709Y4908D01*
Y5264D01*
X25617Y5607D01*
X25439Y5916D01*
X25188Y6167D01*
X24879Y6345D01*
X24536Y6437D01*
D02*
G37*
G36*
X20709D02*
X18007D01*
Y3735D01*
X20709D01*
Y6437D01*
D02*
G37*
G36*
X35758Y4986D02*
X34458D01*
Y3686D01*
X34542D01*
X34898Y3781D01*
X35218Y3966D01*
X35478Y4226D01*
X35663Y4546D01*
X35758Y4902D01*
Y4986D01*
D02*
G37*
G36*
X34258D02*
X32958D01*
Y4902D01*
X33053Y4546D01*
X33238Y4226D01*
X33498Y3966D01*
X33818Y3781D01*
X34174Y3686D01*
X34258D01*
Y4986D01*
D02*
G37*
G36*
X62565Y4516D02*
X62530D01*
Y3591D01*
X63455D01*
Y3626D01*
X63385Y3887D01*
X63250Y4120D01*
X63059Y4311D01*
X62826Y4446D01*
X62565Y4516D01*
D02*
G37*
G36*
X62330D02*
X62295D01*
X62034Y4446D01*
X61801Y4311D01*
X61610Y4120D01*
X61475Y3887D01*
X61405Y3626D01*
Y3591D01*
X62330D01*
Y4516D01*
D02*
G37*
G36*
X68980Y10467D02*
X68625Y10432D01*
X68284Y10328D01*
X67970Y10161D01*
X67695Y9934D01*
X67469Y9659D01*
X67301Y9345D01*
X67197Y9004D01*
X67162Y8649D01*
Y5333D01*
X67197Y4978D01*
X67301Y4637D01*
X67469Y4323D01*
X67695Y4048D01*
X67970Y3822D01*
X68284Y3654D01*
X68625Y3550D01*
X68980Y3515D01*
X69335Y3550D01*
X69676Y3654D01*
X69990Y3822D01*
X70265Y4048D01*
X70491Y4323D01*
X70659Y4637D01*
X70763Y4978D01*
X70798Y5333D01*
Y8649D01*
X70763Y9004D01*
X70659Y9345D01*
X70491Y9659D01*
X70265Y9934D01*
X69990Y10161D01*
X69676Y10328D01*
X69335Y10432D01*
X68980Y10467D01*
D02*
G37*
G36*
X55880D02*
X55525Y10432D01*
X55184Y10328D01*
X54870Y10161D01*
X54595Y9934D01*
X54369Y9659D01*
X54201Y9345D01*
X54097Y9004D01*
X54062Y8649D01*
Y5333D01*
X54097Y4978D01*
X54201Y4637D01*
X54369Y4323D01*
X54595Y4048D01*
X54870Y3822D01*
X55184Y3654D01*
X55525Y3550D01*
X55880Y3515D01*
X56235Y3550D01*
X56576Y3654D01*
X56890Y3822D01*
X57165Y4048D01*
X57391Y4323D01*
X57559Y4637D01*
X57663Y4978D01*
X57698Y5333D01*
Y8649D01*
X57663Y9004D01*
X57559Y9345D01*
X57391Y9659D01*
X57165Y9934D01*
X56890Y10161D01*
X56576Y10328D01*
X56235Y10432D01*
X55880Y10467D01*
D02*
G37*
G36*
X65058Y4467D02*
X64801D01*
X64553Y4401D01*
X64331Y4272D01*
X64149Y4090D01*
X64021Y3868D01*
X63954Y3620D01*
Y3363D01*
X64021Y3114D01*
X64149Y2892D01*
X64331Y2710D01*
X64553Y2582D01*
X64801Y2515D01*
X65058D01*
X65307Y2582D01*
X65529Y2710D01*
X65711Y2892D01*
X65839Y3114D01*
X65906Y3363D01*
Y3620D01*
X65839Y3868D01*
X65711Y4090D01*
X65529Y4272D01*
X65307Y4401D01*
X65058Y4467D01*
D02*
G37*
G36*
X60058D02*
X59801D01*
X59553Y4401D01*
X59331Y4272D01*
X59149Y4090D01*
X59021Y3868D01*
X58954Y3620D01*
Y3363D01*
X59021Y3114D01*
X59149Y2892D01*
X59331Y2710D01*
X59553Y2582D01*
X59801Y2515D01*
X60058D01*
X60307Y2582D01*
X60529Y2710D01*
X60711Y2892D01*
X60839Y3114D01*
X60906Y3363D01*
Y3620D01*
X60839Y3868D01*
X60711Y4090D01*
X60529Y4272D01*
X60307Y4401D01*
X60058Y4467D01*
D02*
G37*
G36*
X63455Y3391D02*
X62530D01*
Y2466D01*
X62565D01*
X62826Y2536D01*
X63059Y2671D01*
X63250Y2862D01*
X63385Y3095D01*
X63455Y3356D01*
Y3391D01*
D02*
G37*
G36*
X62330D02*
X61405D01*
Y3356D01*
X61475Y3095D01*
X61610Y2862D01*
X61801Y2671D01*
X62034Y2536D01*
X62295Y2466D01*
X62330D01*
Y3391D01*
D02*
G37*
%LPD*%
D32*
X37566Y53013D02*
D03*
D37*
X81251Y51732D02*
D03*
D41*
X59990Y51655D02*
X65445D01*
X66083Y43070D02*
Y51017D01*
X65445Y51655D02*
X66083Y51017D01*
X58003Y34990D02*
X66083Y43070D01*
X64930Y44454D02*
Y50465D01*
X53300Y32824D02*
X64930Y44454D01*
X107100Y12100D02*
Y17637D01*
X103401Y8400D02*
X107100Y12100D01*
X94240Y5500D02*
X97140Y8400D01*
X103401D01*
X102200Y12200D02*
Y49300D01*
X31400Y11700D02*
X45400Y25700D01*
Y30900D01*
X61900Y24400D02*
X63800Y26300D01*
Y26300D01*
X64742Y25676D02*
Y25676D01*
X62766Y23700D02*
X64742Y25676D01*
X49588Y23700D02*
X62766D01*
X49300Y24400D02*
X61900D01*
X43900Y19000D02*
X49300Y24400D01*
X49376Y25300D02*
X59600D01*
X43317Y19241D02*
X49376Y25300D01*
X45478Y19590D02*
X49588Y23700D01*
X43317Y18913D02*
Y19241D01*
X42821Y18417D02*
X43317Y18913D01*
X54400Y29169D02*
Y31387D01*
X52726Y27495D02*
X54400Y29169D01*
Y31387D02*
X57083Y34070D01*
X53800Y29276D02*
Y31611D01*
X52424Y27900D02*
X53800Y29276D01*
Y31611D02*
X56476Y34287D01*
X53300Y29600D02*
Y32824D01*
X52300Y28600D02*
X53300Y29600D01*
X25100Y31800D02*
X51600D01*
X58432Y39568D02*
Y39868D01*
X56600Y41700D02*
X58432Y39868D01*
X52700Y41700D02*
X56600D01*
X58432Y39568D02*
X58500Y39500D01*
X33373Y10200D02*
X50668Y27495D01*
X52726D01*
X33240Y10640D02*
X50500Y27900D01*
X52424D01*
X27840Y10640D02*
X33240D01*
X22990Y10200D02*
X33373D01*
X55585Y30985D02*
X55630Y30940D01*
X63140D01*
X55600Y30092D02*
X71308D01*
X53800Y44200D02*
X60500D01*
X56468Y34549D02*
X56476Y34541D01*
X56468Y34549D02*
Y35032D01*
X56400Y35100D02*
X56468Y35032D01*
X56476Y34287D02*
Y34541D01*
X57083Y34070D02*
Y34907D01*
X58068Y35892D01*
X41630Y57077D02*
Y58763D01*
X97100Y30200D02*
X100900D01*
X67854Y28546D02*
X77500D01*
X67200Y29200D02*
X67854Y28546D01*
X93900Y28700D02*
Y30200D01*
X92000Y26800D02*
X93900Y28700D01*
X91650Y12250D02*
Y15850D01*
X91600Y15900D02*
X91650Y15850D01*
Y12250D02*
X91700Y12200D01*
X20040Y33788D02*
X22326Y31502D01*
X9372Y30994D02*
X12166Y33788D01*
X20040D01*
X57990Y34990D02*
X58003D01*
X58068Y35892D02*
X58081D01*
X16180Y29400D02*
X22700D01*
X14623Y30957D02*
X16180Y29400D01*
X22700D02*
X25100Y31800D01*
X63140Y30940D02*
X63190Y30890D01*
X21500Y11690D02*
X22990Y10200D01*
X26790Y11690D02*
X27840Y10640D01*
X71308Y30092D02*
X104208Y62992D01*
X43662Y54040D02*
X66456Y76834D01*
X100622D01*
X29600Y35500D02*
X46500D01*
X52700Y41700D01*
X31200Y36500D02*
X42768D01*
X46638Y40370D01*
X48700Y39100D02*
X53800Y44200D01*
X9626Y53854D02*
X13182Y50298D01*
X16104Y44989D02*
Y48718D01*
X22284Y30307D02*
X22326Y30348D01*
Y31502D01*
X9372Y28962D02*
Y30994D01*
X13182Y44989D02*
Y50298D01*
X79828Y53155D02*
X80251Y52732D01*
X11912Y52910D02*
X16104Y48718D01*
X79828Y53155D02*
Y58582D01*
X78460Y59950D02*
X79828Y58582D01*
X38455Y53902D02*
X41630Y57077D01*
D42*
X52700Y31660D02*
Y36500D01*
X26300Y37200D02*
Y38600D01*
X28942Y34558D02*
X52610D01*
X26300Y37200D02*
X28942Y34558D01*
X45094Y24053D02*
X52700Y31660D01*
X44664Y24016D02*
X44702Y24053D01*
X45094D01*
X65200Y18600D02*
Y25150D01*
X67200Y27150D01*
X107100Y36397D02*
X108639Y37936D01*
X107100Y17637D02*
Y36397D01*
X17953Y38600D02*
X26300D01*
X16104Y36751D02*
X17953Y38600D01*
D43*
X3020Y57530D02*
D03*
Y48890D02*
D03*
D44*
X7200Y57530D02*
D03*
Y48890D02*
D03*
D45*
X6700Y50320D02*
D03*
Y56100D02*
D03*
D46*
X59930Y3491D02*
D03*
X64930D02*
D03*
X62430D02*
D03*
X64930Y5991D02*
D03*
D47*
X59930D02*
D03*
D48*
X55880Y6991D02*
D03*
X68980D02*
D03*
D49*
X23653Y63780D02*
D03*
X78898Y79782D02*
D03*
D50*
X87128Y63780D02*
D03*
D51*
X89160Y5500D02*
D03*
X94240D02*
D03*
X91700D02*
D03*
X86620D02*
D03*
X84080D02*
D03*
D52*
X96780D02*
D03*
D53*
X116767Y33364D02*
D03*
D54*
X119307D02*
D03*
X116767Y30824D02*
D03*
X119307D02*
D03*
X116767Y28284D02*
D03*
X119307D02*
D03*
X116767Y25744D02*
D03*
X119307D02*
D03*
X116767Y23204D02*
D03*
X119307D02*
D03*
X116767Y20664D02*
D03*
X119307D02*
D03*
X116767Y18124D02*
D03*
X119307D02*
D03*
X116767Y15584D02*
D03*
X119307D02*
D03*
D55*
X100622Y80334D02*
D03*
D56*
Y76834D02*
D03*
D57*
X121158Y4510D02*
D03*
X121179Y78740D02*
D03*
X3810D02*
D03*
Y4510D02*
D03*
D58*
X108639Y37936D02*
D03*
X106099Y35396D02*
D03*
D59*
X108639Y32856D02*
D03*
D60*
X34358Y5086D02*
D03*
X29358D02*
D03*
X24358D02*
D03*
D61*
X19358D02*
D03*
D62*
X64930Y50465D02*
D03*
X102200Y12200D02*
D03*
X31400Y11700D02*
D03*
X63800Y26300D02*
D03*
X59600Y25300D02*
D03*
X51600Y31800D02*
D03*
X52700Y36500D02*
D03*
X55585Y30985D02*
D03*
X55600Y30092D02*
D03*
X44664Y24016D02*
D03*
X67200Y27150D02*
D03*
X64742Y25676D02*
D03*
X65200Y18600D02*
D03*
X58200Y36800D02*
D03*
X54154Y17100D02*
D03*
X60500Y44200D02*
D03*
X56400Y35100D02*
D03*
X41630Y58763D02*
D03*
X100900Y30200D02*
D03*
X97100D02*
D03*
X67200Y29200D02*
D03*
X77500Y28546D02*
D03*
X107100Y17637D02*
D03*
X93900Y30200D02*
D03*
X92000Y26800D02*
D03*
X91600Y15900D02*
D03*
X91700Y12200D02*
D03*
X45478Y19590D02*
D03*
X26300Y38600D02*
D03*
X16104Y36751D02*
D03*
X58081Y35892D02*
D03*
X102200Y49300D02*
D03*
X63190Y30890D02*
D03*
X14623Y30957D02*
D03*
X42821Y18417D02*
D03*
X43900Y19000D02*
D03*
X52300Y28600D02*
D03*
X58500Y39500D02*
D03*
X59990Y51655D02*
D03*
X21500Y11690D02*
D03*
X57990Y34990D02*
D03*
X26790Y11690D02*
D03*
X45400Y30900D02*
D03*
X104208Y62992D02*
D03*
X29600Y35500D02*
D03*
X46638Y40370D02*
D03*
X48700Y39100D02*
D03*
X31200Y36500D02*
D03*
X52700Y41700D02*
D03*
X9626Y53854D02*
D03*
X9372Y28962D02*
D03*
X22284Y30307D02*
D03*
X13182Y44989D02*
D03*
X16104D02*
D03*
X11912Y52910D02*
D03*
X43662Y54040D02*
D03*
X78460Y59950D02*
D03*
D63*
X100000Y10000D02*
D03*
X110000Y70000D02*
D03*
X115000Y60000D02*
D03*
Y40000D02*
D03*
X110000Y30000D02*
D03*
Y10000D02*
D03*
X105000Y60000D02*
D03*
X100000Y50000D02*
D03*
X105000Y20000D02*
D03*
X95000Y60000D02*
D03*
X90000Y50000D02*
D03*
X95000Y20000D02*
D03*
X90000Y10000D02*
D03*
X80000Y70000D02*
D03*
X85000Y20000D02*
D03*
X80000Y10000D02*
D03*
X70000Y70000D02*
D03*
X75000Y60000D02*
D03*
X70000Y50000D02*
D03*
X65000Y60000D02*
D03*
X60000Y50000D02*
D03*
X50000Y70000D02*
D03*
X55000Y60000D02*
D03*
X50000Y50000D02*
D03*
X40000Y70000D02*
D03*
X45000Y60000D02*
D03*
X40000Y30000D02*
D03*
Y10000D02*
D03*
X30000Y70000D02*
D03*
X35000Y60000D02*
D03*
X30000Y50000D02*
D03*
X20000Y70000D02*
D03*
X25000Y60000D02*
D03*
Y40000D02*
D03*
X20000Y10000D02*
D03*
X15000Y60000D02*
D03*
Y40000D02*
D03*
Y20000D02*
D03*
X10000Y10000D02*
D03*
D64*
X37566Y53013D02*
D03*
X36677Y53902D02*
D03*
X38455Y52124D02*
D03*
Y53902D02*
D03*
X36677Y52124D02*
D03*
X82251Y50732D02*
D03*
X81251D02*
D03*
X82251Y51732D02*
D03*
X81251D02*
D03*
X82251Y52732D02*
D03*
X81251D02*
D03*
X80251Y50732D02*
D03*
Y51732D02*
D03*
Y52732D02*
D03*
%TF.MD5,d88737fafd392e127ee9a6f2e4305303*%
M02*
